<?xml version="1.0" encoding="UTF-8"?>
<svg width="24" height="24" fill="#000000" version="1.1" viewBox="0 0 24 24" xmlns="http://www.w3.org/2000/svg">
 <path d="m7.52 2.45c-1.35-.0222-2.79.376-4.22 1.45a.75.75 0 00-.0312.0352.75.75 0 00-.107.119.75.75 0 00-.0742.109.75.75 0 00-.0508.146.75.75 0 00-.0273.137.75.75 0 00-.00977.0527v15.8a.75.75 0 00.75.75.75.75 0 00.75-.75v-4.12c1.24-.841 2.32-1.02 3.44-.904 1.2.125 2.46.646 3.77 1.21 1.31.562 2.69 1.17 4.2 1.32 1.51.157 3.16-.188 4.79-1.41a.75.75 0 00.301-.6v-11.2a.75.75 0 00-1.2-.6c-1.37 1.03-2.53 1.24-3.74 1.12-1.2-.125-2.46-.646-3.77-1.21-1.31-.562-2.69-1.17-4.2-1.32-.189-.0196-.381-.032-.574-.0352zm-.0332 1.5c.15.00397.301.0137.451.0293 1.2.125 2.46.646 3.77 1.21 1.31.562 2.69 1.17 4.2 1.32 1.14.118 2.36-.196 3.59-.811v9.6c-1.23.833-2.33 1.08-3.44.965-1.2-.125-2.46-.646-3.77-1.21-1.31-.562-2.69-1.17-4.2-1.32-1.14-.118-2.36.0497-3.59.666v-9.52c1.07-.727 2.03-.959 2.99-.934z" color="#000000" fill="#000" stroke-linecap="round" stroke-linejoin="round"/>
</svg>
