<svg id="a" width="24px" height="24px" data-name="24x24/On Light/Notification-Alert" version="1.1" viewBox="0 0 24 24" xmlns="http://www.w3.org/2000/svg">
 <path fill="#000" transform="translate(3.25,2.25)" d="m8.4238 0.0058594c-3.0931 0.16146-5.5973 2.5716-5.877 5.6563l-0.44727 4.9102c-0.038235 0.43162-0.29779 0.81245-0.68555 1.0059-0.86963 0.43057-1.4183 1.3187-1.4141 2.2891v0.38281c0.0016526 1.242 1.008 2.2483 2.25 2.25h3.75v0.5c0 1.5188 1.2312 2.75 2.75 2.75 1.5188 0 2.75-1.2312 2.75-2.75v-0.5h3.75c1.242-0.0017 2.2483-1.008 2.25-2.25v-0.38281c0.0042-0.97038-0.54443-1.8585-1.4141-2.2891-0.38776-0.19341-0.64731-0.57424-0.68555-1.0059l-0.44727-4.9102c-0.27968-3.0846-2.7839-5.4948-5.877-5.6563zm0.32617 1.4941c2.4495-0.011497 4.497 1.8602 4.7051 4.3008l0.44531 4.9062c0.0836 0.9502 0.65552 1.7885 1.5098 2.2129 0.36181 0.17773 0.59072 0.54611 0.58984 0.94922v0.38281c-0.0016 0.41322-0.33678 0.7475-0.75 0.74805h-13c-0.41323-5.47e-4 -0.74838-0.33482-0.75-0.74805v-0.38281c-8.785e-4 -0.40311 0.22803-0.77149 0.58984-0.94922 0.85425-0.42442 1.4262-1.2627 1.5098-2.2129l0.44531-4.9062c0.20803-2.4406 2.2556-4.3123 4.7051-4.3008zm-1.25 15h2.5v0.5c0 0.69036-0.55964 1.25-1.25 1.25s-1.25-0.55964-1.25-1.25z"/>
</svg>
