<?xml version="1.0" encoding="UTF-8"?>
<svg xmlns="http://www.w3.org/2000/svg" xmlns:xlink="http://www.w3.org/1999/xlink" width="540" height="360">
<defs>
<linearGradient id="black" x1="0%" x2="100%" y1="0%" y2="0%"><stop offset="0" stop-color="#000"/><stop offset="1" stop-color="#000" stop-opacity="0"/></linearGradient>
<linearGradient id="grey" x1="0%" x2="100%" y1="0%" y2="0%"><stop offset="0" stop-color="#515151"/><stop offset="1" stop-color="#000" stop-opacity="0"/></linearGradient>
<radialGradient id="white" cx="321.19" cy="851.7" r="16.652" gradientTransform="matrix(1,0,0,0.578749,0,358.778)" gradientUnits="userSpaceOnUse"><stop offset="0" stop-color="#fff"/><stop offset="1" stop-color="#fff" stop-opacity="0"/></radialGradient>
<filter id="blur" x="-0.143054" y="-0.247178" width="1.28611" height="1.49436" color-interpolation-filters="sRGB"><feGaussianBlur stdDeviation="1.9851621"/></filter>
</defs>
<rect width="540" height="360" fill="#0097fe"/>
<path d="m540,60H220m0,80H540m0,80H0m0,80H540" stroke="#fff" stroke-width="40"/>
<g fill="#cbc534">
<path id="star" d="m175 100 27.1353-8.81678-16.7705 23.0826v-28.5317l16.7705 23.0826z"/>
<g id="s3">
<use xlink:href="#star" transform="rotate(27.6923,110,100)"/>
<use xlink:href="#star" transform="rotate(55.3846,110,100)"/>
<use xlink:href="#star" transform="rotate(83.0769,110,100)"/>
</g>
<use xlink:href="#s3" transform="rotate(83.0769,110,100)"/>
<use xlink:href="#s3" transform="rotate(166.154,110,100)"/>
<use xlink:href="#s3" transform="rotate(249.231,110,100)"/>
</g>
<g fill="#fff">
<path d="m120.54 151.78c-0.10479-0.16869 1.2072-3.3125 2.9156-6.9862 4.8406-10.409 5.5874-12.333 6.1514-15.845 0.69638-4.3371-0.74015-7.2015-6.5957-13.152l-3.564-3.6216-2.104 0.86861c-6.9303 2.8611-14.459 3.4013-24.078 1.7276-5.6448-0.98219-5.9214-0.98023-7.8307 0.0555-0.9447 0.51245-3.518 2.3372-5.7185 4.055-4.7996 3.7468-4.8792 3.7914-8.3123 4.6551-3.3854 0.85176-9.1099 0.74064-11.513-0.22347-3.9402-1.581-7.2474-5.2132-8.429-9.2572-0.6286-2.1513-0.43557-3.2572 1.2522-7.1742 1.8935-4.3946 5.2797-7.8009 9.3247-9.3799 4.2156-1.6456 11.523-0.75438 15.467 1.8865 0.88925 0.59539 1.7877 1.0805 1.9967 1.078 0.20891-3e-3 1.3464-0.82939 2.5277-1.8375 3.0285-2.5845 8.0038-6.0549 10.817-7.5449 2.3816-1.2615 2.3882-1.2688 1.7578-1.9395-0.60784-0.64683-0.94299-1.5757-2.7935-7.7416-1.3008-4.3343-2.7504-6.4322-7.5474-10.922-3.6597-3.4256-4.3773-4.2734-5.4912-6.4877-1.7141-3.4073-3.8595-9.8317-3.427-10.262 0.21799-0.21688 1.26 0.3634 3.0935 1.7227 4.9068 3.6378 8.6211 4.9067 14.378 4.9119 5.0317 0.0046 12.783 0.59368 15.242 1.1584 1.1398 0.26177 2.6304 0.75922 3.3125 1.1055 1.5427 0.78304 4.073 3.4397 5.0024 5.2523 0.95961 1.8715 2.239 6.7866 3.3322 12.801 0.50314 2.7684 1.0013 5.1195 1.107 5.2246 0.34681 0.34505 4.2872-0.64705 6.9174-1.7416 3.6334-1.5121 5.5978-2.8286 8.8217-5.9118 3.1844-3.0455 4.7653-4.109 7.0282-4.7281 1.79-0.48974 4.737-0.26745 6.16 0.46466 1.2157 0.62547 3.1416 2.7884 4.0255 4.5207 1.4091 2.762 2.6758 4.2251 5.9224 6.841 4.0417 3.2565 4.3828 3.7771 3.1598 4.8237-1.1435 0.97858-2.0749 0.95366-5.313-0.14214-2.4142-0.81698-3.0623-0.89324-7.4727-0.87937-5.2235 0.01644-7.1279 0.43691-8.4841 1.8732-0.38008 0.40253-1.29 2.3954-2.022 4.4286l-1.331 3.6967 1.394 0.70638c1.4407 0.73005 2.0372 1.1382 6.1248 4.1908 1.8905 1.4118 2.7148 2.3117 3.7804 4.1267 2.161 3.681 2.6507 5.2433 2.4792 7.9101-0.30884 4.8027-2.7245 7.9014-18.389 23.589-6.816 6.8259-12.503 12.411-12.639 12.411-0.13518 0-0.33151-0.13804-0.43631-0.30673z"/>
<g fill="url(#grey)">
<path d="m78.1758 60.3008-0.263672 0.417969c8.70644 5.51899 23.1387 5.61914 23.1387 5.61914l4e-3 -0.496094s-14.3804-0.153805-22.8789-5.54102z"/>
<path d="m81.3496 66.2656-0.205078 0.449219c6.48147 2.96534 15.9054 3.90876 21.1055 4.2168l0.0293-0.494141c-5.17517-0.306564-14.5778-1.26583-20.9297-4.17188z"/>
<path d="m86.3633 71.418-0.208984 0.449219c8.1504 3.76861 21.6504 3.83398 21.6504 3.83398l4e-3 -0.494141s-13.4831-0.107474-21.4453-3.78906z"/>
<path d="m90.1523 76.2656-0.179688 0.458984c6.28819 2.45906 15.4554 3.22754 20.4355 3.47461l0.0254-0.492188c-4.95887-0.246013-14.113-1.02926-20.2812-3.44141z"/>
<path d="m92.6172 82.0332-0.152344 0.470703c6.13465 2.00666 15.0754 2.63774 19.959 2.8418l0.0195-0.494141c-4.8658-0.203308-13.7979-0.846495-19.8262-2.81836z"/>
</g>
<g fill="url(#black)">
<path d="m132.248 103s-4.47522 4.96596-11.9434 9.33594l0.25 0.42773c7.53485-4.40902 12.0605-9.43359 12.0605-9.43359z"/>
<path d="m140.045 103.463c-3.91295 3.59977-9.28275 8.03041-15.8379 12.1992l0.26563 0.41601c6.5858-4.18831 11.9782-8.63644 15.9082-12.252z"/>
<path d="m142.979 107.992c-3.8164 3.88255-9.01245 8.62213-15.332 13.0859l0.28711 0.4043c6.35-4.48529 11.5639-9.24548 15.3965-13.1445z"/>
<path d="m144.857 110.33s-5.46994 9.07963-14.5801 17.0547l0.32618 0.37109c9.17625-8.03294 14.6777-17.1699 14.6777-17.1699z"/>
<path d="m147.791 113.883c-4.97144 6.58994-11.8004 14.7093-20.1387 22.3457l0.33399 0.36328c8.36781-7.66349 15.2143-15.8023 20.1992-22.4102z"/>
<path d="m70.584 102.506-0.04883 0.0508h-5.95312c-3.06167 0-6.13043 1.56498-8.44531 3.11524-2.31488 1.55025-3.88086 3.10351-3.88086 3.10351l0.347657 0.34961s1.53282-1.52022 3.80664-3.04297c2.27382-1.52275 5.28034-3.03125 8.17188-3.03125h6.5625z"/>
<path d="m71.4141 107.139-8.32422 0.56445c-4.20623 0.28553-7.12766 1.63103-8.99609 2.91016s-2.69727 2.50977-2.69727 2.50977l0.410157 0.27539s0.762688-1.14213 2.56641-2.37696c1.80372-1.23482 4.63283-2.54669 8.75-2.82617l8.32422-0.56445z"/>
<path d="m73.5098 109.148-8.14844 4.17187c-4.04773 2.07186-7.14937 2.7404-9.23047 2.89649-2.0811 0.15608-3.11719-0.19141-3.11719-0.19141l-0.154297 0.46875s1.15875 0.37804 3.30859 0.2168 5.3175-0.85233 9.41797-2.95117l8.14844-4.16993z"/>
<path d="m76.2422 112.543s-9.84467 3.02391-18.457 9.2168l0.289063 0.40039c8.52924-6.13312 18.3125-9.14453 18.3125-9.14454z"/>
</g>
<path fill="#ff0" d="m155.463 83.2012c-0.58323-0.044553-1.60048 0.291246-2.18945 0.800781-0.50953 0.44081-2.19336 3.32757-2.19336 3.75977 0 0.07027 0.9286 0.216792 2.06445 0.326172 1.1359 0.10938 3.25509 0.564458 4.70899 1.01172 3.1217 0.96037 3.48359 0.996839 4.27929 0.417969 0.5546-0.40348 0.32852-0.66346-2.72656-3.125-1.8322-1.4763-3.42471-2.83267-3.53711-3.01367-0.06642-0.10692-0.21184-0.162883-0.40625-0.177734z"/>
<path fill="#000" stroke="#000" stroke-width="0.1648" d="m167.22 97.826c-2.6236-1.0379-6.1896-2.8844-7.2956-5.9407-0.97182-0.55636-1.5777-2.194-2.173-3.1884-0.9539-1.59344-1.84695-3.37142-2.98176-4.79873l-0.50074 0.130426c3.1885 3.8058 4.4895 8.958 8.5767 11.952 1.0032 0.73497 3.1619 2.5014 4.3744 1.8451z"/>
<path fill="#007f00" d="m162.62 91.938c-0.71738-0.01436-1.4227 0.11609-2 0.65625 1.1456 0.82598 3.1924 0.75796 4.1562-0.40625-0.69499-0.08084-1.4389-0.23564-2.1562-0.25zm1.9688 1.9688c-0.66174 0.0054-1.3114 0.15533-2 0.5 1.0875 0.88277 3.0917 1.0163 4.0625-0.15625-0.72244-0.22261-1.4008-0.34918-2.0625-0.34375zm-3.5312 0.625c-1.1701 1.2218 0.36965 3.6296 0.96875 4.875l0.71875-1-1.6875-3.875zm5.4688 1.2812c-0.52154 0.02635-1.0298 0.18792-1.5 0.5625 1.0933 0.67351 3.128 1.1131 4.125 0.03125-0.85586-0.31114-1.7558-0.63767-2.625-0.59375zm-3.3438 1.2812c0.13518 1.6481 1.092 2.5623 2.1562 3.625 0.20565-1.4444-0.87838-3.2762-2.1562-3.625zm5.4688 0.84375c-0.3767 0.01255-0.76436 0.0587-1.125 0.15625 1.2152 1.1695 2.6217 1.4356 4.1875 1.0625-0.80966-0.9131-1.9324-1.2564-3.0625-1.2188zm-3.28 0.187c0.67815 1.4782 1.7053 2.5428 3.2188 2.875-0.67848-1.4794-1.6092-2.7943-3.2188-2.875z"/>
<path fill="#ff0" d="m151.78 85.609s8.1487 3.0076 8.5284 3.0947c0.37969 0.08718-0.0146 0-0.0146 0s3.1105 1.0461 2.3803 0.17435c-0.94019-1.1225-2.2197-2.1503-2.6432-2.47-0.42349-0.31965-3.8991-3.3853-4.1182-3.4289-0.21905-0.04359-0.0438-0.20341-0.93462 0.04359-0.8908 0.247-1.7962 0.81364-1.9276 1.0316-0.13143 0.21794-1.2267 1.5546-1.2705 1.5546z"/>
<path fill="url(#white)" filter="url(#blur)" d="m304.54 850.33s24.66 9.1482 25.809 9.4134c1.149 0.26517-0.0442 0-0.0442 0s9.4134 3.182 7.2036 0.53033c-2.8453-3.4144-6.7175-6.5407-7.9991-7.513-1.2816-0.97228-11.8-10.297-12.463-10.43-0.66291-0.13258-0.13258-0.61872-2.8284 0.13258s-5.4359 2.4749-5.8336 3.1378c-0.39774 0.66291-3.7123 4.7288-3.8449 4.7288z" transform="matrix(0.330437,0,0,0.328761,51.1317,-193.888)"/>
<path fill="none" stroke="#dee200" stroke-width="0.3296" d="m162.61 89.393c-8.3311-2.4774-10.635-3.8931-10.68-3.7358-0.0443 0.15729 0.0886 0 0.0886 0"/>
<path fill="#000" d="m120.54 151.78c-0.1048-0.16869 1.2072-3.3125 2.9156-6.9862 4.8406-10.409 5.5874-12.333 6.1514-15.845 0.69638-4.3371-0.74015-7.2015-6.5957-13.152l-3.564-3.6216-2.104 0.86861c-6.9303 2.8612-14.459 3.4013-24.078 1.7276-5.6448-0.98219-5.9214-0.98023-7.8307 0.0555-0.9447 0.51245-3.518 2.3372-5.7185 4.055-4.7996 3.7468-4.8792 3.7914-8.3123 4.6551-3.3854 0.85176-9.1099 0.74064-11.513-0.22347-3.9402-1.581-7.2474-5.2132-8.429-9.2572-0.6286-2.1513-0.43557-3.2572 1.2522-7.1742 1.8935-4.3946 5.2797-7.8009 9.3247-9.3799 4.2156-1.6456 11.523-0.75438 15.467 1.8865 0.88925 0.59538 1.7877 1.0805 1.9967 1.078 0.20891-3e-3 1.3464-0.82939 2.5277-1.8375 3.0285-2.5845 8.0038-6.0549 10.817-7.5449 2.3816-1.2615 2.3882-1.2688 1.7578-1.9395-0.60784-0.64683-0.94299-1.5757-2.7935-7.7416-1.3008-4.3343-2.7504-6.4322-7.5474-10.922-3.6597-3.4256-4.3773-4.2734-5.4912-6.4877-1.7141-3.4073-3.8595-9.8317-3.427-10.262 0.21799-0.21688 1.26 0.3634 3.0935 1.7227 4.9068 3.6378 8.6211 4.9067 14.378 4.9119 5.0317 0.0046 12.783 0.59368 15.242 1.1584 1.1398 0.26177 2.6304 0.75922 3.3125 1.1055 1.5427 0.78304 4.0729 3.4397 5.0024 5.2523 0.95962 1.8715 2.239 6.7866 3.3322 12.801 0.50313 2.7684 1.0013 5.1195 1.107 5.2246 0.34682 0.34505 4.2872-0.64705 6.9174-1.7416 3.6334-1.5121 5.5978-2.8286 8.8217-5.9118 3.1844-3.0455 4.7653-4.109 7.0282-4.7281 1.79-0.48974 4.737-0.26745 6.16 0.46466 1.2157 0.62547 3.1416 2.7884 4.0255 4.5207 1.4091 2.762 2.6758 4.2251 5.9224 6.841 4.0417 3.2565 4.3828 3.7771 3.1598 4.8237-1.1435 0.97858-2.0749 0.95366-5.313-0.14214-2.4142-0.81698-3.0623-0.89324-7.4727-0.87937-5.2235 0.01644-7.1279 0.43691-8.4841 1.8732-0.38008 0.40253-1.29 2.3954-2.022 4.4286l-1.331 3.6967 1.394 0.70638c1.4407 0.73005 2.0372 1.1382 6.1248 4.1908 1.8905 1.4118 2.7148 2.3117 3.7804 4.1267 2.161 3.681 2.6507 5.2433 2.4792 7.9101-0.30884 4.8027-2.7245 7.9014-18.389 23.589-6.816 6.8259-12.503 12.411-12.639 12.411-0.13518 0-0.33151-0.13801-0.4363-0.30673zm26.536-27.595c4.8524-6.4755 5.1609-9.4154 1.6145-15.383-1.3753-2.3142-2.3208-3.2136-6.4144-6.1021-0.9411-0.66404-2.4626-1.5862-3.381-2.0493-1.9284-0.97225-2.7659-2.0497-2.6145-3.3635 0.14069-1.2211 0.71425-1.1839 0.93939 0.06094 0.15484 0.85607 0.34482 0.52421 1.439-2.5137 1.8422-5.1145 2.8561-5.9521 7.9612-6.5763l3.1965-0.39084 0.99178-1.9547c1.0994-2.1668 2.3718-3.5231 3.3053-3.5231 0.33694 0 0.61262-0.05912 0.61262-0.13137s-0.5951-1.0709-1.3224-2.2191c-0.72734-1.1483-1.455-2.3837-1.6171-2.7453-1.0453-2.3323-4.7518-3.6355-7.8948-2.7758-2.2433 0.61363-3.8313 1.6836-7.0092 4.7228-3.2223 3.0818-5.1859 4.398-8.8217 5.9135-3.5483 1.479-7.0686 2.0679-14.835 2.4817-7.245 0.38602-11.841 1.1177-15.649 2.4916-6.2437 2.2522-13.095 7.1149-21.825 15.49l-2.8087 2.6947 0.99131 0.37811c4.518 1.7232 14.438 4.2378 20.818 5.2768 4.4523 0.72515 12.136 0.89925 14.971 0.33922 1.7625-0.34809 7.3448-2.1186 8.225-2.6088 0.76703-0.42707-0.3908-1.1493-2.1687-1.3528-1.9776-0.22634-1.9773-0.8042 3.4e-4 -0.93157 1.414-0.0911 1.6822 0.0261 3.4696 1.5155 3.0583 2.5485 8.2298 8.0272 9.6705 10.245 1.7103 2.6327 2.1843 4.8358 1.7036 7.9183-0.49967 3.2041-1.3141 5.4153-4.7157 12.803-1.6235 3.526-3.0318 6.6328-3.1295 6.904-0.36421 1.0113 22.299-21.948 24.297-24.614zm-0.21399-43.176c-0.5097-0.50711-0.5097-1.6627 0-2.1698 0.51115-0.50857 2.0002-0.50857 2.5113 0 0.5097 0.50711 0.5097 1.6627 0 2.1698-0.51115 0.50857-2.0002 0.50857-2.5113 0zm-74.314 41.186c1.7867-0.56951 2.9915-1.3015 5.7826-3.513 1.9392-1.5365 4.4079-3.3704 5.4861-4.0755 1.2385-0.80988 1.786-1.3401 1.487-1.44-0.26034-0.087-1.6629-0.47717-3.1169-0.86713-4.4777-1.201-9.8911-2.9882-10.34-3.4139-0.34434-0.32634 0.29235-1.0963 3.2862-3.974 2.0423-1.9631 3.5452-3.625 3.3398-3.6931-0.20539-0.0681-0.94069-0.52878-1.634-1.0237-3.3595-2.3983-10.515-3.2367-14.478-1.6965-4.7783 1.8573-7.8512 5.5233-9.7752 11.662-0.56617 1.8064-0.57479 2.0883-0.11219 3.6715 0.98679 3.3772 3.947 6.9287 6.7483 8.0964 3.4829 1.4518 9.2473 1.5673 13.327 0.26699zm89.584-32.678c0.5546-0.40348 0.32848-0.66256-2.7266-3.1241-1.8322-1.4763-3.4234-2.8322-3.5358-3.0132-0.26567-0.42768-1.81-0.0578-2.5953 0.62158-0.50953 0.44081-2.1947 3.3281-2.1947 3.7603 0 0.07027 0.92935 0.21727 2.0652 0.32665 1.1359 0.10938 3.2548 0.56484 4.7087 1.0121 3.1217 0.96037 3.4828 0.99553 4.2785 0.41666zm-59.13-1.882c1.8143-0.34941 6.3074-0.81437 9.9848-1.0332 6.4613-0.38457 6.6812-0.42053 6.5396-1.0694-0.0806-0.36931-0.45573-2.4468-0.83357-4.6166-0.884-5.0766-2.4042-10.923-3.289-12.648-0.95072-1.8541-2.846-3.8735-4.3534-4.6387-0.69005-0.35025-2.1872-0.851-3.3269-1.1128-2.4588-0.56471-10.21-1.1538-15.242-1.1584-5.4747-5e-3 -9.4806-1.2917-13.678-4.3935-1.1359-0.83935-2.0652-1.3902-2.0652-1.2242 0 0.72455 2.1481 6.2994 3.1973 8.2981 0.91132 1.7359 2.0191 3.0059 5.3372 6.1188 4.7702 4.4752 6.2223 6.5831 7.5248 10.923 1.7875 5.9563 2.1489 6.9899 2.6965 7.7121l0.5661 0.74668 1.8217-0.63429c1.0019-0.34886 3.3061-0.92017 5.1204-1.2696z"/>
</g>
</svg>