<?xml version="1.0" encoding="UTF-8" standalone="no"?>
<!-- Generator: Adobe Illustrator 13.0.1, SVG Export Plug-In . SVG Version: 6.00 Build 14948)  -->

<svg
   version="1.1"
   id="Layer_1"
   x="0px"
   y="0px"
   width="900px"
   height="600px"
   viewBox="0 0 900 600"
   enable-background="new 0 0 900 600"
   xml:space="preserve"
   sodipodi:docname="anishinaabe.svg"
   inkscape:version="1.4 (1:1.4+202410161351+e7c3feb100)"
   inkscape:export-filename="anishinaabe-test.png"
   inkscape:export-xdpi="3.0933332"
   inkscape:export-ydpi="3.0933332"
   xmlns:inkscape="http://www.inkscape.org/namespaces/inkscape"
   xmlns:sodipodi="http://sodipodi.sourceforge.net/DTD/sodipodi-0.dtd"
   xmlns="http://www.w3.org/2000/svg"
   xmlns:svg="http://www.w3.org/2000/svg"><defs
   id="defs19" /><sodipodi:namedview
   id="namedview17"
   pagecolor="#ffffff"
   bordercolor="#666666"
   borderopacity="1.0"
   inkscape:showpageshadow="2"
   inkscape:pageopacity="0.0"
   inkscape:pagecheckerboard="0"
   inkscape:deskcolor="#d1d1d1"
   showgrid="false"
   inkscape:zoom="0.55625734"
   inkscape:cx="502.46528"
   inkscape:cy="384.71403"
   inkscape:window-width="1239"
   inkscape:window-height="761"
   inkscape:window-x="549"
   inkscape:window-y="126"
   inkscape:window-maximized="0"
   inkscape:current-layer="Layer_1" />
<g
   id="Layer_3"
   style="fill:#a90404;fill-opacity:1">
	<rect
   fill="#FFFFFF"
   width="900"
   height="600"
   id="rect2"
   style="fill:#a90303;fill-opacity:1" />
</g>
<g
   id="Layer_2"
   transform="matrix(1.232591,0,0,1.232591,-104.66596,-69.777634)"
   style="fill:#ffffff;fill-opacity:1">
	<g
   id="g13"
   style="fill:#ffffff;fill-opacity:1">
		<polygon
   points="452.701,299.93 490.114,248.043 415.532,248.063 "
   id="polygon5"
   style="fill:#ffffff;fill-opacity:1" />
		<path
   d="M 698.866,291.93 558.532,205.597 h -51.347 c -2.01,-4.655 -14.037,-32.253 -22.486,-45.276 -1.875,-2.89 -1.482,-3.569 -4.499,-5.349 -5.314,-3.135 -50.731,-1.488 -55.206,-1.325 -1.466,0.2 -8.233,1.613 -9.813,9.236 -0.975,4.71 0.154,8.875 3.667,11.667 -0.084,-2.583 0.822,-7.255 4.697,-6.677 2.672,0.328 4.552,3.261 4.552,6.177 0,4.887 -6.064,15.966 -6.064,15.966 0,0 -3.789,8.469 -7.413,15.581 h -69.422 l -144.064,87.033 23.328,30.331 42.005,-0.034 -13.627,-18.905 5.17,-3.453 15.886,22.125 35.566,-0.064 -26.704,-38.576 5.019,-3.35 29.686,41.592 35.666,-0.031 -41.095,-57.75 5.353,-3.573 42.813,61.092 30.202,0.032 3.665,-4.586 -50.41,-74.075 5.251,-3.504 55.607,77.127 -59.609,81.134 40.599,0.134 39.105,-53.398 9.335,12.947 -65.777,89.088 161.69,-0.032 -59.333,-88.302 10.263,-14.855 35.517,51.896 39.11,-0.164 -56.175,-78.445 53.225,-77.053 4.942,3.253 -49.356,74.191 3.18,4.588 29.327,-0.039 43.223,-61.385 4.041,2.66 -40.548,58.124 36.164,0.032 29.726,-41.479 4.38,2.883 -27.002,38.731 35.667,0.064 16.207,-22.428 5.129,3.375 -14.008,19.087 42.005,0.034 0.775,-1.104 z M 455.782,164.632 c 2.862,0 5.185,2.321 5.185,5.185 0,2.864 -2.32,5.185 -5.185,5.185 -2.865,0 -5.188,-2.321 -5.188,-5.185 0.002,-2.864 2.324,-5.185 5.188,-5.185 z m 11.901,258.424 -14.753,-22.416 -16.932,23.647 -11.764,-0.071 28.854,-39.168 25.123,37.839 z m -14.852,-90.792 -63.633,-99.333 125.668,-0.167 z"
   id="path7"
   style="fill:#ffffff;fill-opacity:1" />
		<path
   d="m 424.832,153.651 c -0.318,0.014 -0.24,0.011 0.162,-0.004 0.021,-0.003 0.041,-0.005 0.061,-0.008 -0.062,0.004 -0.134,0.008 -0.223,0.012 z"
   id="path9"
   style="fill:#ffffff;fill-opacity:1" />
		<path
   d="m 425.055,153.639 c 0.312,-0.02 0.276,-0.035 0,0 z"
   id="path11"
   style="fill:#ffffff;fill-opacity:1" />
	</g>
</g>
</svg>
