<?xml version="1.0"?>
<svg  width="648" height="432" viewBox="0 0 648 432" xmlns="http://www.w3.org/2000/svg" xmlns:xlink="http://www.w3.org/1999/xlink">
<path d="m0 0h648v432h-648z" fill="#d81e05"/>
<path d="m0 0h648v288h-648z" fill="#fff" />
<path d="m324 288h324v144h-324z" fill="#008d46"/>
<path d="m0 0h648v144h-648z" fill="#d81e05"/>
<use transform="matrix(1 0 0 1 313 0)" xlink:href="#a"/>
<path id="a" d="m233.9 282-66.47 4.85-66.47-4.85v-132h132.9z" fill="#d81e05"/>
<path id="b" d="m97.99 147v127.2c0 5.27 2.88 10.8 9.5 10.8h52.96c.86 0 1.68.37 2.25 1.02l4.76 5.4s4.22-4.79 4.77-5.4c.57-.64 1.39-1.01 2.24-1.01h52.96c6.57 0 9.51-5.54 9.51-10.8v-127.2z" fill="none" stroke="#fc0" stroke-width="6"/>
<path d="m512.4 252c-2.31 1.82-4.43 3.8-6.31 6.06l-2.27-2.15c-1.62-1.54-5.23-1.51-7.45-.38-6.5 3.3-10.13 11.28-11.99 18.3l-3.28 12.37 64.76-1.76 3.68-10.17 1.23-.44s-5.49-15-11.99-18.3c-2.22-1.13-5.83-1.16-7.45.38l-2.27 2.15c-1.88-2.27-4-4.24-6.31-6.06z" fill="#008d46"/>
<g fill="none" stroke="#fff">
<path d="m500.7 183.3h34.21m-17.08 62.97.03-80.07m-21.25 35.09h42.27" stroke-width="6"/>
<path d="m512.8 165.6h10.09m12.94 12.63v10.09m-36.02-10.47-.08 10.38m40.07 8.03.09 10.04m-44.09-10.04-.04 10.04" stroke-width="3"/>
</g>
<path d="m512.6 246h10.1v6.06h-10.1z" fill="#fc0"/>
<path d="m514.3 246.8-2.79-2.15m6.31 2.15v-3.21m3.79 3.21 2.13-2.15" fill="none" stroke="#fc0"/>
<path d="m411.3 117.1.29-16.42 15.86 21.52 2.35-32.23 15.63 23.79 5.08-26.29 8.21 17.85c2.15-17.04 17.49-23.92 17.49-23.92v-17.85l10.31-.36-.08 18.29s11.98 3.98 16.91 23.67l9.34-18.93 4.17 30.04 15.02-26.76 4.16 32.94 13.13-21.33 2.22 17.95-12.83 25.19s-23.55-11.97-37.56-11.97h-37.56c-12.71 0-28.85 5.15-37.56 11.97z" fill="#fc0"/>
<g fill="none" stroke="#fc0" stroke-width="4">
<path d="m425.6 144.1-23.6-42.02c-1.96-1.79-.13-13.63-.13-13.63-.38-9.21 23.6-17.42 32.06-20.07 10.2-3.2 42.66-6.69 47.96-6.69 5.55 0 39.76 3.53 45.94 6.69 0 0 26.51 8.2 33.07 20.07 0 0 2.06 12.02.63 13.63l-22.72 42.02"/>
<path d="m482.4 61.03-16.06-25.88"/>
<path d="m464.4 46.93 12.67-8.93"/>
</g>
<path d="m168.4 59.07v-11.23h6.25v-1.8h-6.25v-7.98h-1.8v7.98h-6.36v1.8h6.36v11.23c-1.14 2.12-3.02 6.37-5.15 7.76-2.87 1.89-7.68 1.89-15.54.97-8.85-1.03-15.58-4.75-22.35-3.63-5.74.95-10.03 7.96-10.03 7.96.2-.07-25.92-3.13-28.31 19.76-1.04 9.91 5.6 17.99 5.6 17.99s-5.9.11-6.93 4.1c-1.03 3.98 3.54 6.96 7.08 6.96s7.81-.44 13.12 5.9 8.55 19.31 8.55 19.31 8.85-6.52 25.46-11.38 42.17-4.86 58.78 0 25.46 11.38 25.46 11.38 3.24-12.97 8.55-19.31 9.58-5.9 13.12-5.9 8.11-2.98 7.08-6.96-6.93-4.1-6.93-4.1 6.64-8.07 5.6-17.99c-2.39-22.88-28.5-19.83-28.31-19.76 0 0-4.29-7.01-10.02-7.96-6.77-1.13-13.5 2.59-22.35 3.63-7.85.92-12.67.92-15.54-.97-2.12-1.4-4.01-5.65-5.14-7.76z" fill="#fc0"/>
<ellipse cx="167.4" cy="97.07" fill="#d81e05" rx="4.8" ry="6.56"/>
<ellipse cx="167.4" cy="121.7" fill="#d81e05" rx="7.33" ry="4.93"/>
<g id="c">
<path d="m161.7 109.2c-1.22 4.2-5.02 4.98-8.48 1.75s-5.28-9.27-4.05-13.47c0-.01.01-.03.01-.04 1.22-4.2 5.02-4.98 8.48-1.75s5.27 9.27 4.05 13.47c-.01.01-.01.03-.01.04zm-17.06-.18c-2.12 4.2-6.09 4.98-8.86 1.75-2.77-3.24-3.29-9.27-1.17-13.47.01-.01.01-.02.02-.04 2.12-4.2 6.09-4.98 8.86-1.75 2.77 3.24 3.29 9.27 1.17 13.47-.01.01-.02.02-.02.04zm-21.79 3.64c-.63 2.21-3.06 2.62-5.42.92s-3.77-4.88-3.14-7.09l.01-.02c.63-2.21 3.06-2.62 5.42-.92s3.77 4.88 3.14 7.09c0 .01 0 .02-.01.02zm-9.86 5.62c-.63 2.21-3.06 2.62-5.42.92s-3.77-4.88-3.14-7.09c0-.01 0-.02.01-.02.63-2.21 3.06-2.62 5.42-.92s3.77 4.88 3.14 7.09c0 .01 0 .02-.01.02zm16.83-11.5c-1.44 2.22-4.24 1.95-6.27-.6s-2.51-6.4-1.07-8.62c0-.01.01-.02.01-.02 1.44-2.22 4.24-1.95 6.27.6s2.51 6.4 1.07 8.62c-.01.01-.01.02-.01.02zm-28.9 11.17c-.73 2.48-3.52 2.95-6.24 1.03-2.72-1.91-4.34-5.48-3.61-7.96 0-.01.01-.02.01-.02.73-2.48 3.52-2.95 6.24-1.03 2.72 1.91 4.34 5.48 3.61 7.96 0 .01 0 .02-.01.02zm18.52-22.46c-.23 2.38-6.83 5.92-10.15 7.59-3.32 1.66-7.75 2.6-12.04 1.51s-7.76-12.12-4.28-19.2c3.58-7.27 15.63-8.14 19.61-6.23 2.2 1.06 7.09 13.94 6.86 16.33zm43.98-10.14c-1.94 4.02-17.17 9.97-23.53 10.38-6.37.42-10.62-3.4-10.62-3.4-4.8-6.89-10.44-17.79-5.33-21.11 4.99-3.24 16.83 2.13 28.58 2.13 6.58 0 12.43-2.13 12.43-2.13s.42 10.1-1.52 14.12zm-21.08 36.76c1.78 2.2.34 5.4-3.22 7.15-3.56 1.76-7.88 1.4-9.66-.8-.01-.01-.01-.02-.02-.02-1.78-2.2-.34-5.4 3.22-7.16 3.56-1.75 7.88-1.4 9.66.81z" fill="#d81e05"/>
<path d="m162.3 62.71c.01 2.17-1.71 3.93-3.83 3.94s-3.84-1.75-3.85-3.91v-.02c-.01-2.17 1.71-3.93 3.83-3.94s3.84 1.75 3.85 3.91zm-11.61 0c.01 2.17-1.71 3.93-3.83 3.94s-3.84-1.75-3.85-3.91v-.02c-.01-2.17 1.71-3.93 3.83-3.94s3.84 1.75 3.85 3.92zm-11.61-2.52c.01 2.17-1.71 3.93-3.83 3.94s-3.84-1.75-3.85-3.91v-.02c-.01-2.17 1.71-3.93 3.83-3.94s3.84 1.75 3.85 3.91zm-13.38 0c.01 2.17-1.71 3.93-3.83 3.94s-3.84-1.75-3.85-3.91v-.02c-.01-2.17 1.71-3.93 3.82-3.94 2.12-.01 3.84 1.75 3.85 3.91zm-11.86 5.81c.01 2.17-1.71 3.93-3.83 3.94s-3.84-1.75-3.85-3.92v-.02c-.01-2.17 1.71-3.93 3.83-3.94s3.84 1.75 3.85 3.92zm-14.14 3.03c.01 2.17-1.71 3.93-3.83 3.94s-3.84-1.75-3.85-3.92v-.02c-.01-2.17 1.71-3.93 3.82-3.94 2.12-.01 3.84 1.75 3.85 3.91zm-12.37 9.59c.01 2.17-1.71 3.93-3.83 3.94s-3.84-1.75-3.85-3.91v-.02c-.01-2.17 1.71-3.93 3.83-3.94s3.84 1.75 3.85 3.92zm-4.29 13.38c.01 2.17-1.71 3.93-3.83 3.94s-3.84-1.75-3.84-3.91v-.02c-.01-2.17 1.71-3.93 3.83-3.94s3.84 1.75 3.85 3.92zm1.26 13.38c.01 2.17-1.71 3.93-3.83 3.94s-3.84-1.75-3.85-3.91v-.02c-.01-2.17 1.71-3.93 3.83-3.94s3.84 1.75 3.85 3.91zm29.28 28.78c.01 2.17-1.71 3.93-3.83 3.94s-3.84-1.75-3.85-3.91v-.02c-.01-2.17 1.71-3.93 3.83-3.94s3.84 1.75 3.85 3.91zm.51-27.01c.01 2.17-1.71 3.93-3.83 3.94s-3.84-1.75-3.85-3.91v-.02c-.01-2.17 1.71-3.93 3.83-3.94s3.84 1.75 3.85 3.91zm36.35-9.59c.01 2.17-1.71 3.93-3.82 3.94-2.12.01-3.84-1.75-3.85-3.92v-.02c-.01-2.17 1.71-3.93 3.83-3.94s3.84 1.75 3.85 3.91z" fill="#fff"/>
</g>
<path id="d" d="m413.4 69.04c.01 2.17-1.71 3.93-3.83 3.94s-3.84-1.75-3.85-3.91v-.02c-.01-2.17 1.71-3.93 3.83-3.94s3.84 1.75 3.85 3.91zm-14.55 36.77c.01 2.17-1.71 3.93-3.83 3.94s-3.84-1.75-3.85-3.91v-.02c-.01-2.17 1.71-3.93 3.82-3.94 2.12-.01 3.84 1.75 3.85 3.91zm-2.23-13.74c.01 2.17-1.71 3.93-3.83 3.94s-3.84-1.75-3.85-3.92v-.02c-.01-2.17 1.71-3.93 3.83-3.94s3.84 1.75 3.85 3.91zm4.28-13.75c.01 2.17-1.71 3.93-3.83 3.94s-3.84-1.75-3.85-3.92v-.02c-.01-2.17 1.71-3.93 3.83-3.94s3.84 1.75 3.85 3.91zm26.77-14.99c.01 2.17-1.71 3.93-3.83 3.94s-3.84-1.75-3.85-3.92v-.02c-.01-2.17 1.71-3.93 3.83-3.94s3.84 1.75 3.85 3.91zm14.64-4.29c.01 2.17-1.71 3.93-3.83 3.94s-3.84-1.75-3.85-3.91v-.02c-.01-2.17 1.71-3.93 3.83-3.94s3.84 1.75 3.85 3.91zm14.46-2.86c.01 2.17-1.71 3.93-3.83 3.94s-3.84-1.75-3.85-3.91v-.02c-.01-2.17 1.71-3.93 3.82-3.94 2.12-.01 3.84 1.75 3.85 3.92zm14.46-1.96c.01 2.17-1.71 3.93-3.83 3.94s-3.84-1.75-3.85-3.91v-.02c-.01-2.17 1.71-3.93 3.83-3.94s3.84 1.75 3.85 3.91z" fill="#fff"/>
<path d="m413.8 167.2h66.46v15.71h-66.46zm0 32.31h66.46v15.71h-66.46zm0 33.74h66.46v15.71h-66.46zm0 33.92h66.46v20.26h-66.46zm-313-73.16v44h132.9v-44z" fill="#fff"/>
<use fill="none" transform="matrix(1 0 0 1 313 0)" xlink:href="#b"/>
<use transform="matrix(-1 0 0 1 334.9 0)" xlink:href="#c"/>
<use transform="matrix(-1 0 0 1 963.1 0)" xlink:href="#d"/>
</svg>
