<?xml version="1.0" encoding="UTF-8" standalone="no"?><svg xmlns="http://www.w3.org/2000/svg" xmlns:xlink="http://www.w3.org/1999/xlink" version="1" width="450" height="300"><rect width="450" height="300" rx="0" ry="0" x="0" y="0" fill="#fff" fill-opacity="1" fill-rule="evenodd" stroke="none"/><rect width="450" height="60" rx="0" ry="0" x="0" y="120" id="a" fill="#cf142b" fill-opacity="1" fill-rule="evenodd" stroke-opacity="1"/><use transform="matrix(0 .66667 -1 0 375 0)" x="0" y="0" width="600" height="300" xlink:href="#a" fill="#cf142b" fill-opacity="1"/><g fill-opacity="1" stroke="#000" stroke-width=".608" stroke-miterlimit="4" stroke-opacity="1"><path d="M211.293 123.723a38.64 7.18 0 1 1-77.28 0 38.64 7.18 0 1 1 77.28 0z" transform="matrix(.77773 0 0 .75313 90.723 3.021)" fill="#888"/><path d="M205.369 123.723a32.715 3.55 0 1 1-65.43 0 32.715 3.55 0 1 1 65.43 0z" transform="matrix(.77773 0 0 .75313 90.723 3.021)" fill="#731818" display="inline"/></g><path d="M225 223.47l-19.286-40.066-44.341 3.331L186.428 150l-25.055-36.735 44.34 3.331L225 76.53l19.286 40.066 44.34-3.33L263.571 150l25.055 36.735-44.34-3.33z" fill="#fff" fill-opacity="1" stroke="#2c1317" stroke-width="1" stroke-miterlimit="4" stroke-opacity="1"/><g stroke-miterlimit="4"><g stroke-width=".629"><g stroke-width=".629" stroke-miterlimit="4"><path d="M224.071 53.504s-5.243.426-7.413 1.098c-.816.253-2.493.619-3.517 1.023-2.978 1.178-5.407 2.684-5.407 2.684-3.382-2.26-6.372-3.876-10.321-2.915-1.381.336-3.14 1.752-3.957 2.915-1.027 1.463-1.227 3.43-1.235 5.217-.005 1.032.686 3.02.686 3.02l-1.647 5.766 6.04 11.532 7.826 2.06 19.22-2.06-.275-30.34z" fill="#d71e1e" fill-opacity="1" stroke="none"/><path d="M200.559 55.274c-1.33-.089-3.627 1.3-4.281 2.424-.544.934-.678 1.5-.671 2.58.006.888.203 1.754.722 2.476.552.766 1.272 1.4 2.167 1.702 1.11.375 2.68.546 3.817.258 1.604-.408 3.27-1.655 4.642-2.58 2.323-1.564 3.806-2.842 6.345-4.023 2.16-1.004 7.48-1.6 7.48-1.6l.103.104-.206-2.58-4.075.517-3.353.98-2.528 1.341-3.043 1.393-4.385-2.425-1.96-.516-.774-.051z" fill="#de4f40" fill-opacity="1" stroke="none"/><path d="M208.245 58.42l-3.095 2.477c-.808.646-1.87 1.266-2.889 1.444-1.203.21-2.814.365-3.662-.464-1.404-1.374-.964-2.654.206-3.56.689-.533 2.395-.632 3.25-.464 1.036.203 1.948 1.243 2.807 1.33l.806.082 2.577-.844z" fill="#97141c" fill-opacity="1" stroke="none"/><path d="M224.071 53.504s-5.243.426-7.413 1.098c-.816.253-2.493.619-3.517 1.023-2.978 1.178-5.407 2.684-5.407 2.684-3.382-2.26-6.372-3.876-10.321-2.915-1.381.336-3.14 1.752-3.957 2.915-1.027 1.463-1.227 3.43-1.235 5.217-.005 1.032.686 3.02.686 3.02l-1.647 5.766 6.04 11.532 7.826 2.06 19.22-2.06-.275-30.34z" fill="none" stroke="#000" stroke-width=".46512034" stroke-linecap="butt" stroke-linejoin="miter" stroke-miterlimit="4" stroke-opacity="1" display="inline"/></g><path d="M223.293 61.028s-4.811 1.296-7.872 2.697c-2.802 1.282-8.261 4.943-11.315 5.354-7.416.738-9.241-1.294-11.682-4.613l.404 8.922 5.201 10.508 12.526.107 12.525-3.185 1.805-10.827-1.592-8.963z" fill="#ba1b24" fill-opacity="1" stroke="none"/><path d="M192.51 72.22s6.781 4.655 10.03 5.188c3.832.63 6.889-.07 10.627-1.123 4.16-1.172 11.612-6.612 11.612-6.612l-1.805 11.251-13.905 3.503-10.828-.318-5.307-10.19-.425-1.699z" fill="#97141c" fill-opacity="1" stroke="none"/><g display="inline"><g stroke-width=".629" stroke-miterlimit="4"><path d="M225.929 53.504s5.243.426 7.413 1.098c.815.253 2.493.619 3.516 1.023 2.978 1.178 5.408 2.684 5.408 2.684 3.382-2.26 6.371-3.876 10.32-2.915 1.382.336 3.14 1.752 3.957 2.915 1.027 1.463 1.228 3.43 1.236 5.217.004 1.032-.687 3.02-.687 3.02l1.648 5.766-6.04 11.532-7.826 2.06-19.22-2.06.275-30.34z" fill="#d71e1e" fill-opacity="1" stroke="none"/><path d="M249.44 55.274c1.33-.089 3.627 1.3 4.282 2.424.543.934.678 1.5.67 2.58-.005.888-.203 1.754-.722 2.476-.551.766-1.271 1.4-2.166 1.702-1.11.375-2.681.546-3.817.258-1.604-.408-3.27-1.655-4.643-2.58-2.322-1.564-3.806-2.842-6.345-4.023-2.159-1.004-7.48-1.6-7.48-1.6l-.103.104.207-2.58 4.075.517 3.353.98 2.528 1.341 3.043 1.393 4.385-2.425 1.96-.516.774-.051z" fill="#de4f40" fill-opacity="1" stroke="none"/><path d="M241.755 58.42l3.095 2.477c.807.646 1.87 1.266 2.888 1.444 1.203.21 2.815.365 3.663-.464 1.403-1.374.964-2.654-.207-3.56-.688-.533-2.394-.632-3.25-.464-1.035.203-1.947 1.243-2.806 1.33l-.806.082-2.577-.844z" fill="#97141c" fill-opacity="1" stroke="none"/><path d="M225.929 53.504s5.243.426 7.413 1.098c.815.253 2.493.619 3.516 1.023 2.978 1.178 5.408 2.684 5.408 2.684 3.382-2.26 6.371-3.876 10.32-2.915 1.382.336 3.14 1.752 3.957 2.915 1.027 1.463 1.228 3.43 1.236 5.217.004 1.032-.687 3.02-.687 3.02l1.648 5.766-6.04 11.532-7.826 2.06-19.22-2.06.275-30.34z" fill="none" stroke="#000" stroke-width=".46512034" stroke-linecap="butt" stroke-linejoin="miter" stroke-miterlimit="4" stroke-opacity="1" display="inline"/></g><path d="M226.707 61.028s4.81 1.296 7.872 2.697c2.802 1.282 8.26 4.943 11.315 5.354 7.415.738 9.24-1.294 11.682-4.613l-.404 8.922-5.202 10.508-12.525.107-12.526-3.185-1.804-10.827 1.592-8.963z" fill="#ba1b24" fill-opacity="1" stroke="none"/><path d="M257.49 72.22s-6.782 4.655-10.03 5.188c-3.833.63-6.89-.07-10.628-1.123-4.16-1.172-11.611-6.612-11.611-6.612l1.804 11.251 13.906 3.503 10.827-.318 5.308-10.19.424-1.699z" fill="#97141c" fill-opacity="1" stroke="none"/></g></g><g stroke-width=".598"><g display="inline"><g stroke-width=".598" font-size="medium" font-style="normal" font-variant="normal" font-weight="400" font-stretch="normal" letter-spacing="normal" word-spacing="normal" direction="ltr" writing-mode="lr-tb" text-anchor="start" color="#000" visibility="visible" font-family="Sans"><path d="M229.071 41.913c8.675.954 16.296 4.108 22.095 8.338 6.629 4.834 10.993 11.085 11.463 17.424l-4.261.324c-.335-4.524-3.809-9.983-9.72-14.294-5.912-4.312-14.132-7.475-23.498-7.79l.14-4.266c1.28.043 2.542.128 3.781.264z" style="text-indent:0;text-align:start;line-height:normal;text-transform:none;block-progression:tb;marker:none;-inkscape-font-specification:Sans" text-decoration="none" baseline-shift="baseline" fill="#e1bb16" fill-opacity="1" stroke="none" display="inline" overflow="visible"/><path d="M225.259 43.226l.03-1.577c1.28.043 2.543.128 3.782.264 8.675.954 16.296 4.108 22.095 8.338 6.629 4.834 10.993 11.085 11.463 17.424l-1.298.22c-3.346-11.516-12.183-21.693-36.072-24.669z" style="text-indent:0;text-align:start;line-height:normal;text-transform:none;block-progression:tb;marker:none;-inkscape-font-specification:Sans" text-decoration="none" baseline-shift="baseline" fill="#f1dc79" fill-opacity="1" stroke="none" display="inline" overflow="visible"/><path d="M229.071 41.913c8.675.954 16.296 4.108 22.095 8.338 6.629 4.834 10.993 11.085 11.463 17.424l-4.261.324c-.335-4.524-3.809-9.983-9.72-14.294-5.912-4.312-14.132-7.475-23.498-7.79l.14-4.266c1.28.043 2.542.128 3.781.264z" style="text-indent:0;text-align:start;line-height:normal;text-transform:none;block-progression:tb;marker:none;-inkscape-font-specification:Sans" text-decoration="none" baseline-shift="baseline" fill="none" stroke="#000" stroke-miterlimit="4" stroke-opacity="1" display="inline" overflow="visible" stroke-width=".46498685999999995"/></g><g stroke-width=".471" display="inline"><path d="M269.162 62.64a3.695 3.695 0 1 1-7.372-.515 3.695 3.695 0 1 1 7.372.514z" fill="#ccc" fill-opacity="1" stroke="none"/><path d="M268.641 62.127a2.867 2.79 3.992 1 1-5.72-.399 2.867 2.79 3.992 1 1 5.72.4z" fill="#e6e6e6" stroke="none"/><path d="M268.429 61.624a2.12 2.13 3.992 1 1-4.231-.295 2.12 2.13 3.992 1 1 4.23.295z" fill="#fff" fill-opacity="1" stroke="none"/><path d="M269.162 62.64a3.695 3.695 0 1 1-7.372-.515 3.695 3.695 0 1 1 7.372.514z" fill="none" stroke="#000" stroke-width=".46508424" stroke-miterlimit="4" stroke-opacity="1" display="inline"/></g><g stroke-width=".471" display="inline"><path d="M265.788 55.952a3.695 3.695 0 1 1-7.372-.514 3.695 3.695 0 1 1 7.372.514z" fill="#ccc" fill-opacity="1" stroke="none"/><path d="M265.268 55.44a2.867 2.79 3.992 1 1-5.72-.399 2.867 2.79 3.992 1 1 5.72.4z" fill="#e6e6e6" stroke="none"/><path d="M265.055 54.937a2.12 2.13 3.992 1 1-4.23-.295 2.12 2.13 3.992 1 1 4.23.295z" fill="#fff" fill-opacity="1" stroke="none"/><path d="M265.788 55.952a3.695 3.695 0 1 1-7.372-.514 3.695 3.695 0 1 1 7.372.514z" fill="none" stroke="#000" stroke-width=".46508424" stroke-miterlimit="4" stroke-opacity="1" display="inline"/></g><g stroke-width=".471" display="inline"><path d="M260.957 50.396a3.695 3.695 0 1 1-7.371-.514 3.695 3.695 0 1 1 7.371.514z" fill="#ccc" fill-opacity="1" stroke="none"/><path d="M260.437 49.885a2.867 2.79 3.992 1 1-5.72-.4 2.867 2.79 3.992 1 1 5.72.4z" fill="#e6e6e6" stroke="none"/><path d="M260.225 49.381a2.12 2.13 3.992 1 1-4.232-.295 2.12 2.13 3.992 1 1 4.232.295z" fill="#fff" fill-opacity="1" stroke="none"/><path d="M260.957 50.396a3.695 3.695 0 1 1-7.371-.514 3.695 3.695 0 1 1 7.371.514z" fill="none" stroke="#000" stroke-width=".46508424" stroke-miterlimit="4" stroke-opacity="1" display="inline"/></g><g stroke-width=".471" display="inline"><path d="M254.796 45.908a3.695 3.695 0 1 1-7.372-.515 3.695 3.695 0 1 1 7.372.515z" fill="#ccc" fill-opacity="1" stroke="none"/><path d="M254.275 45.396a2.867 2.79 3.992 1 1-5.72-.4 2.867 2.79 3.992 1 1 5.72.4z" fill="#e6e6e6" stroke="none"/><path d="M254.063 44.892a2.12 2.13 3.992 1 1-4.231-.295 2.12 2.13 3.992 1 1 4.231.295z" fill="#fff" fill-opacity="1" stroke="none"/><path d="M254.796 45.908a3.695 3.695 0 1 1-7.372-.515 3.695 3.695 0 1 1 7.372.515z" fill="none" stroke="#000" stroke-width=".46508424" stroke-miterlimit="4" stroke-opacity="1" display="inline"/></g><g stroke-width=".471" display="inline"><path d="M248.106 42.058a3.695 3.695 0 1 1-7.371-.514 3.695 3.695 0 1 1 7.371.514z" fill="#ccc" fill-opacity="1" stroke="none"/><path d="M247.586 41.546a2.867 2.79 3.992 1 1-5.72-.399 2.867 2.79 3.992 1 1 5.72.4z" fill="#e6e6e6" stroke="none"/><path d="M247.374 41.043a2.12 2.13 3.992 1 1-4.232-.295 2.12 2.13 3.992 1 1 4.232.295z" fill="#fff" fill-opacity="1" stroke="none"/><path d="M248.106 42.058a3.695 3.695 0 1 1-7.371-.514 3.695 3.695 0 1 1 7.371.514z" fill="none" stroke="#000" stroke-width=".46508424" stroke-miterlimit="4" stroke-opacity="1" display="inline"/></g><g stroke-width=".471" display="inline"><path d="M240.726 39.804a3.695 3.695 0 1 1-7.372-.515 3.695 3.695 0 1 1 7.372.515z" fill="#ccc" fill-opacity="1" stroke="none"/><path d="M240.205 39.292a2.867 2.79 3.992 1 1-5.72-.4 2.867 2.79 3.992 1 1 5.72.4z" fill="#e6e6e6" stroke="none"/><path d="M239.993 38.789a2.12 2.13 3.992 1 1-4.231-.296 2.12 2.13 3.992 1 1 4.231.296z" fill="#fff" fill-opacity="1" stroke="none"/><path d="M240.726 39.804a3.695 3.695 0 1 1-7.372-.515 3.695 3.695 0 1 1 7.372.515z" fill="none" stroke="#000" stroke-width=".46508424" stroke-miterlimit="4" stroke-opacity="1" display="inline"/></g></g><g stroke-width=".598" font-size="medium" font-style="normal" font-variant="normal" font-weight="400" font-stretch="normal" letter-spacing="normal" word-spacing="normal" direction="ltr" writing-mode="lr-tb" text-anchor="start" color="#000" visibility="visible" font-family="Sans"><path d="M220.929 41.913c-8.675.954-16.296 4.108-22.096 8.338-6.628 4.834-10.993 11.085-11.462 17.424l4.26.324c.336-4.524 3.81-9.983 9.72-14.294 5.912-4.312 14.133-7.475 23.498-7.79l-.139-4.266c-1.28.043-2.542.128-3.781.264z" style="text-indent:0;text-align:start;line-height:normal;text-transform:none;block-progression:tb;marker:none;-inkscape-font-specification:Sans" text-decoration="none" baseline-shift="baseline" fill="#e1bb16" fill-opacity="1" stroke="none" display="inline" overflow="visible"/><path d="M224.74 43.226l-.03-1.577c-1.28.043-2.542.128-3.781.264-8.675.954-16.296 4.108-22.096 8.338-6.628 4.834-10.993 11.085-11.462 17.424l1.297.22c3.346-11.516 12.183-21.693 36.073-24.669z" style="text-indent:0;text-align:start;line-height:normal;text-transform:none;block-progression:tb;marker:none;-inkscape-font-specification:Sans" text-decoration="none" baseline-shift="baseline" fill="#f1dc79" fill-opacity="1" stroke="none" display="inline" overflow="visible"/><path d="M220.929 41.913c-8.675.954-16.296 4.108-22.096 8.338-6.628 4.834-10.993 11.085-11.462 17.424l4.26.324c.336-4.524 3.81-9.983 9.72-14.294 5.912-4.312 14.133-7.475 23.498-7.79l-.139-4.266c-1.28.043-2.542.128-3.781.264z" style="text-indent:0;text-align:start;line-height:normal;text-transform:none;block-progression:tb;marker:none;-inkscape-font-specification:Sans" text-decoration="none" baseline-shift="baseline" fill="none" stroke="#000" stroke-miterlimit="4" stroke-opacity="1" display="inline" overflow="visible" stroke-width=".46498685999999995"/></g><g stroke-width=".471" display="inline"><path d="M180.838 62.64a3.695 3.695 0 1 1 7.372-.515 3.695 3.695 0 1 1-7.372.514z" fill="#ccc" fill-opacity="1" stroke="none"/><path d="M181.359 62.127a2.79 2.867 86.008 1 1 5.72-.399 2.79 2.867 86.008 1 1-5.72.4z" fill="#e6e6e6" stroke="none"/><path d="M181.57 61.624a2.12 2.13-3.992 1 1 4.232-.295 2.12 2.13-3.992 1 1-4.231.295z" fill="#fff" fill-opacity="1" stroke="none"/><path d="M180.838 62.64a3.695 3.695 0 1 1 7.372-.515 3.695 3.695 0 1 1-7.372.514z" fill="none" stroke="#000" stroke-width=".46508424" stroke-miterlimit="4" stroke-opacity="1" display="inline"/></g><g stroke-width=".471" display="inline"><path d="M184.211 55.952a3.695 3.695 0 1 1 7.372-.514 3.695 3.695 0 1 1-7.372.514z" fill="#ccc" fill-opacity="1" stroke="none"/><path d="M184.732 55.44a2.79 2.867 86.008 1 1 5.72-.399 2.79 2.867 86.008 1 1-5.72.4z" fill="#e6e6e6" stroke="none"/><path d="M184.944 54.937a2.12 2.13-3.992 1 1 4.231-.295 2.12 2.13-3.992 1 1-4.23.295z" fill="#fff" fill-opacity="1" stroke="none"/><path d="M184.211 55.952a3.695 3.695 0 1 1 7.372-.514 3.695 3.695 0 1 1-7.372.514z" fill="none" stroke="#000" stroke-width=".46508424" stroke-miterlimit="4" stroke-opacity="1" display="inline"/></g><g stroke-width=".471" display="inline"><path d="M189.042 50.396a3.695 3.695 0 1 1 7.372-.514 3.695 3.695 0 1 1-7.372.514z" fill="#ccc" fill-opacity="1" stroke="none"/><path d="M189.563 49.885a2.79 2.867 86.008 1 1 5.72-.4 2.79 2.867 86.008 1 1-5.72.4z" fill="#e6e6e6" stroke="none"/><path d="M189.775 49.381a2.12 2.13-3.992 1 1 4.231-.295 2.12 2.13-3.992 1 1-4.231.295z" fill="#fff" fill-opacity="1" stroke="none"/><path d="M189.042 50.396a3.695 3.695 0 1 1 7.372-.514 3.695 3.695 0 1 1-7.372.514z" fill="none" stroke="#000" stroke-width=".46508424" stroke-miterlimit="4" stroke-opacity="1" display="inline"/></g><g stroke-width=".471" display="inline"><path d="M195.204 45.908a3.695 3.695 0 1 1 7.372-.515 3.695 3.695 0 1 1-7.372.515z" fill="#ccc" fill-opacity="1" stroke="none"/><path d="M195.724 45.396a2.79 2.867 86.008 1 1 5.72-.4 2.79 2.867 86.008 1 1-5.72.4z" fill="#e6e6e6" stroke="none"/><path d="M195.936 44.892a2.12 2.13-3.992 1 1 4.232-.295 2.12 2.13-3.992 1 1-4.232.295z" fill="#fff" fill-opacity="1" stroke="none"/><path d="M195.204 45.908a3.695 3.695 0 1 1 7.372-.515 3.695 3.695 0 1 1-7.372.515z" fill="none" stroke="#000" stroke-width=".46508424" stroke-miterlimit="4" stroke-opacity="1" display="inline"/></g><g stroke-width=".471" display="inline"><path d="M201.893 42.058a3.695 3.695 0 1 1 7.372-.514 3.695 3.695 0 1 1-7.372.514z" fill="#ccc" fill-opacity="1" stroke="none"/><path d="M202.414 41.546a2.79 2.867 86.008 1 1 5.72-.399 2.79 2.867 86.008 1 1-5.72.4z" fill="#e6e6e6" stroke="none"/><path d="M202.626 41.043a2.12 2.13-3.992 1 1 4.231-.295 2.12 2.13-3.992 1 1-4.231.295z" fill="#fff" fill-opacity="1" stroke="none"/><path d="M201.893 42.058a3.695 3.695 0 1 1 7.372-.514 3.695 3.695 0 1 1-7.372.514z" fill="none" stroke="#000" stroke-width=".46508424" stroke-miterlimit="4" stroke-opacity="1" display="inline"/></g><g stroke-width=".471" display="inline"><path d="M209.274 39.804a3.695 3.695 0 1 1 7.372-.515 3.695 3.695 0 1 1-7.372.515z" fill="#ccc" fill-opacity="1" stroke="none"/><path d="M209.794 39.292a2.79 2.867 86.008 1 1 5.72-.4 2.79 2.867 86.008 1 1-5.72.4z" fill="#e6e6e6" stroke="none"/><path d="M210.006 38.789a2.12 2.13-3.992 1 1 4.232-.296 2.12 2.13-3.992 1 1-4.232.296z" fill="#fff" fill-opacity="1" stroke="none"/><path d="M209.274 39.804a3.695 3.695 0 1 1 7.372-.515 3.695 3.695 0 1 1-7.372.515z" fill="none" stroke="#000" stroke-width=".46508424" stroke-miterlimit="4" stroke-opacity="1" display="inline"/></g></g><g stroke-width=".598"><path d="M223.35 22.372c-.522-2.46-2.735-4.38-4.892-6.316 4.383.472 8.767.33 13.15 0-1.98 2.019-4.807 3.802-5.007 6.316 2.553-1.107 4.198-3.348 6.164-5.189-.466 3.706-.145 7.411 0 11.117-1.953-1.567-3.618-3.553-6.164-4.256.757 2.299 2.621 4.066 5.056 5.558h-13.345c2.208-1.545 4.213-3.226 5.038-5.558-2.425.781-4.169 2.805-6.115 4.458.343-3.74.304-7.478 0-11.217 1.875 2.036 3.623 4.335 6.115 5.087z" fill="#edd05c" fill-opacity="1" stroke="#000" stroke-opacity="1" stroke-width=".46498685999999995"/><path d="M222.09 22.829a2.91 2.91 0 1 1 5.82 0 2.91 2.91 0 1 1-5.82 0z" fill="#ccc" fill-opacity="1" stroke="none"/><path d="M222.527 22.455a2.197 2.258 90 1 1 4.516 0 2.197 2.258 90 1 1-4.516 0z" fill="#e6e6e6" stroke="none"/><path d="M222.721 22.072a1.67 1.677 0 1 1 3.34 0 1.67 1.677 0 1 1-3.34 0z" fill="#fff" fill-opacity="1" stroke="none"/><path d="M222.09 22.829a2.91 2.91 0 1 1 5.82 0 2.91 2.91 0 1 1-5.82 0z" fill="none" stroke="#000" stroke-width=".46498685999999995" stroke-miterlimit="4" stroke-opacity="1" display="inline"/><g><g stroke-width=".598" stroke-miterlimit="4" fill-opacity="1"><path d="M182.537 47.735a10.542 10.152 0 1 1-21.084 0 10.542 10.152 0 1 1 21.084 0z" transform="matrix(.74944 0 0 .77825 96.1 .532)" fill="#eac634" stroke="#000" stroke-width=".609" stroke-miterlimit="4" stroke-opacity="1"/><path d="M228.128 35.363a4.518 4.387 0 1 1-9.037 0 4.518 4.387 0 1 1 9.037 0z" fill="#f1dc79" stroke="none"/></g><path d="M224.679 28.976c-.728 0-1.312.584-1.312 1.312v5.245h-5.268c-.728 0-1.337.584-1.337 1.312v.587c0 .728.609 1.312 1.337 1.312h13.826c.728 0 1.312-.584 1.312-1.312v-.587c0-.728-.584-1.312-1.312-1.312h-5.268v-5.245c0-.728-.584-1.312-1.312-1.312h-.666z" fill="#eac634" fill-opacity="1" stroke="none"/><path d="M216.83 37.137l7.874-.068.342-8.147-1.506.479-.137 6.23-5.477-.069-1.095 1.164v.411zM226.415 35.768l.01 1.408 6.768.03v-.754l-1.096-.958-5.476-.068-.206.342z" fill="#f1dc79" fill-opacity="1" stroke="none"/><path d="M224.679 28.976c-.728 0-1.312.584-1.312 1.312v5.245h-5.268c-.728 0-1.337.584-1.337 1.312v.587c0 .728.609 1.312 1.337 1.312h13.826c.728 0 1.312-.584 1.312-1.312v-.587c0-.728-.584-1.312-1.312-1.312h-5.268v-5.245c0-.728-.584-1.312-1.312-1.312h-.666z" fill="none" stroke="#000" stroke-width=".46498685999999995" stroke-miterlimit="4" stroke-opacity="1" display="inline"/></g><g><g stroke-width=".598" transform="matrix(.77757 0 0 .77757 77.857 16.396)"><g transform="translate(16.75 -19.478)"><rect width="14.761" height="18.541" rx="2.603" ry="2.603" x="164.955" y="54.389" fill="#f3d948" fill-opacity="1" stroke="#333" stroke-opacity="1"/><rect width="4.058" height="21.257" rx="2.029" ry="2.029" x="165.399" y="53.306" fill="#eac634" fill-opacity="1" stroke="#000" stroke-width=".598" stroke-miterlimit="4" stroke-opacity="1" transform="translate(-1.293 .143)"/></g><rect width="4.058" height="21.257" rx="2.029" ry="2.029" x="193.557" y="33.971" fill="#eac634" fill-opacity="1" stroke="#000" stroke-opacity="1" display="inline"/></g><g stroke-width=".471"><path d="M221.305 45.324a3.695 3.695 0 1 1 7.39 0 3.695 3.695 0 1 1-7.39 0z" fill="#ccc" fill-opacity="1" stroke="none"/><path d="M221.86 44.85a2.79 2.867 90 1 1 5.734 0 2.79 2.867 90 1 1-5.734 0z" fill="#e6e6e6" stroke="none"/><path d="M222.106 44.362a2.12 2.13 0 1 1 4.242 0 2.12 2.13 0 1 1-4.242 0z" fill="#fff" fill-opacity="1" stroke="none"/><path d="M221.305 45.324a3.695 3.695 0 1 1 7.39 0 3.695 3.695 0 1 1-7.39 0z" fill="none" stroke="#000" stroke-width=".46508424" stroke-miterlimit="4" stroke-opacity="1" display="inline"/><g display="inline"><path d="M221.305 50.226a3.695 3.695 0 1 1 7.39 0 3.695 3.695 0 1 1-7.39 0z" fill="#ccc" fill-opacity="1" stroke="none"/><path d="M221.86 49.751a2.79 2.867 90 1 1 5.734 0 2.79 2.867 90 1 1-5.734 0z" fill="#e6e6e6" stroke="none"/><path d="M222.106 49.264a2.12 2.13 0 1 1 4.242 0 2.12 2.13 0 1 1-4.242 0z" fill="#fff" fill-opacity="1" stroke="none"/><path d="M221.305 50.226a3.695 3.695 0 1 1 7.39 0 3.695 3.695 0 1 1-7.39 0z" fill="none" stroke="#000" stroke-width=".46508424" stroke-miterlimit="4" stroke-opacity="1" display="inline"/></g><g display="inline"><path d="M221.305 55.57a3.695 3.695 0 1 1 7.39 0 3.695 3.695 0 1 1-7.39 0z" fill="#ccc" fill-opacity="1" stroke="none"/><path d="M221.86 55.096a2.79 2.867 90 1 1 5.734 0 2.79 2.867 90 1 1-5.734 0z" fill="#e6e6e6" stroke="none"/><path d="M222.106 54.61a2.12 2.13 0 1 1 4.242 0 2.12 2.13 0 1 1-4.242 0z" fill="#fff" fill-opacity="1" stroke="none"/><path d="M221.305 55.57a3.695 3.695 0 1 1 7.39 0 3.695 3.695 0 1 1-7.39 0z" fill="none" stroke="#000" stroke-width=".46508424" stroke-miterlimit="4" stroke-opacity="1" display="inline"/></g></g></g></g><g stroke-width=".598"><path d="M196.21 92.75s-3.819-12.47-6.557-18.365c-1.333-2.87-4.098-8.206-4.098-8.206l5.61-3.238 2.887-.404c-1.419 3.784-1.32 6.43-1.349 9.172 2.974-.512 4.34-2.77 5.935-4.316l1.889 7.958c-2.977-1.323-4.962-.661-6.88.135 0 0 1.23 2.402 2.159 3.237 1.063.955 2.235 1.501 3.642 1.753 1.33.239 2.83.321 4.046-.27 2.562-1.243 3.867-3.956 3.507-3.776 0 0 .257-2.38-.405-3.237-.495-.642-1.512-1.163-2.293-.945-1.23.345-1.888 3.103-1.888 3.103s-1.183-2.348-1.484-3.642c-.264-1.14-.66-2.462-.135-3.507.392-.78 1.3-1.325 2.159-1.484 1.136-.21 3.237.81 3.237.81s-.627-2.115-.81-3.238c-.093-.577.047-1.348.27-1.888.511-1.234 2.023-2.293 1.844-2.3-.18-.008 1.546.647 2.344 1.717.35.469.675 1.182.726 1.764.1 1.133.011 3.337.011 3.337s1.786-1.505 2.94-1.58c.87-.057 1.885.247 2.456.908.766.884.708 2.262.731 3.432.027 1.328-.543 3.895-.543 3.895s-1.315-2.512-2.593-2.543c-.81-.02-1.668.735-1.99 1.479-.43.993.403 3.237.403 3.237 5.047 3.94 10.27-.1 11.341-4.04v-1.483c-2.113.291-3.012.662-5.126 3.102l-.674-9.846c2.023 1.83 3.777 2.487 5.8 2.158-.19-2.86-1.624-4.135-3.96-6.638l2.293-.675h6.863l2.293.675c-2.336 2.503-3.944 3.777-4.133 6.638 2.023.329 3.776-.329 5.8-2.158l-.675 9.846c-2.113-2.44-3.012-2.81-5.125-3.102v1.484c1.07 3.938 6.293 7.98 11.34 4.04 0 0 .834-2.245.404-3.238-.323-.744-1.18-1.499-1.99-1.479-1.279.031-2.594 2.543-2.594 2.543s-.57-2.567-.543-3.895c.024-1.17-.034-2.548.732-3.432.57-.66 1.585-.965 2.456-.908 1.154.075 2.94 1.58 2.94 1.58s-.089-2.204.01-3.337c.052-.582.377-1.295.726-1.764.799-1.07 2.525-1.725 2.345-1.718-.18.008 1.332 1.067 1.843 2.3.224.54.364 1.312.27 1.89-.182 1.122-.81 3.236-.81 3.236s2.101-1.02 3.238-.809c.858.16 1.767.704 2.158 1.484.525 1.045.13 2.367-.135 3.507-.3 1.294-1.484 3.642-1.484 3.642s-.657-2.758-1.888-3.103c-.78-.218-1.798.303-2.293.945-.662.857-.405 3.237-.405 3.237-.36-.18.946 2.533 3.507 3.776 1.216.591 2.716.509 4.047.27 1.406-.252 2.579-.798 3.642-1.753.929-.835 2.158-3.237 2.158-3.237-1.918-.796-3.902-1.458-6.88-.135l1.89-7.958c1.595 1.546 2.96 3.804 5.934 4.316-.028-2.742.07-5.388-1.349-9.172l2.62.483 5.878 3.159s-2.765 5.336-4.098 8.206c-2.739 5.895-6.558 18.366-6.558 18.366l-.118.336c-19.541-4.374-38.638-3.865-57.46-.336z" fill="#eac634" fill-opacity="1" stroke="none" display="inline"/><path d="M205.639 91.247c-3.151.412-6.294.916-9.429 1.504 0 0-3.819-12.47-6.557-18.366-1.333-2.87-4.098-8.206-4.098-8.206l5.61-3.238 2.887-.404c-1.419 3.784-1.32 6.43-1.349 9.172 2.974-.512 4.34-2.77 5.935-4.316l1.889 7.958c-2.977-1.323-4.962-.661-6.88.135 0 0 1.23 2.402 2.159 3.237 1.063.955 2.235 1.501 3.642 1.753 1.33.239 2.83.321 4.046-.27l2.145 11.041zm40.866-11.04c1.216.59 2.716.508 4.047.27 1.406-.253 2.579-.8 3.642-1.754.929-.835 2.158-3.237 2.158-3.237-1.918-.796-3.902-1.458-6.88-.135l1.89-7.958c1.595 1.546 2.96 3.804 5.934 4.316-.028-2.742.07-5.388-1.349-9.172l2.62.483 5.878 3.159s-2.765 5.336-4.098 8.206c-2.739 5.895-6.558 18.366-6.558 18.366l-.118.336a128.602 128.602 0 0 0-10.532-1.902l-.308.283 3.674-11.262z" fill="#e1bb16" fill-opacity="1" stroke="none" display="inline"/><path d="M201.776 91.798a176.14 176.14 0 0 0-5.566.953s-3.819-12.47-6.557-18.366c-1.333-2.87-4.098-8.206-4.098-8.206l5.61-3.238 2.887-.404c-1.419 3.784-1.32 6.43-1.349 9.172 2.974-.512 4.34-2.77 5.935-4.316l1.889 7.958c-2.977-1.323-4.962-.661-6.88.135 0 0 1.23 2.402 2.159 3.237 1.063.955 2.235 1.501 3.642 1.753l2.328 11.322zm48.776-11.322c1.406-.252 2.579-.798 3.642-1.753.929-.835 2.158-3.237 2.158-3.237-1.918-.796-3.902-1.458-6.88-.135l1.89-7.958c1.595 1.546 2.96 3.804 5.934 4.316-.028-2.742.07-5.388-1.349-9.172l2.62.483 5.878 3.159s-2.765 5.336-4.098 8.206c-2.739 5.895-6.558 18.366-6.558 18.366l-.118.336a128.575 128.575 0 0 0-5.705-1.143l-.25-.256 2.836-11.212z" fill="#c6ad18" fill-opacity="1" stroke="none" display="inline"/><path d="M231.25 90.072l.742-12.953c-2.62-.744-4.685-3.095-5.314-5.41v-1.484c2.113.291 3.012.662 5.125 3.102l.675-9.846c-2.024 1.83-3.777 2.487-5.8 2.158.19-2.86 1.71-4.077 4.046-6.58l-2.293-.675h-6.863l-2.293.675c2.336 2.503 3.857 3.72 4.047 6.58-2.023.329-3.777-.329-5.8-2.158l.674 9.846c2.114-2.44 3.013-2.81 5.126-3.102v1.484c-.634 2.33-2.72 4.695-5.363 5.423l.818 12.94c4.173-.158 8.441-.177 12.472 0z" fill="#edd05c" fill-opacity="1" stroke="none" display="inline"/><path d="M261.144 72.137c-.648 1.294-.323 1.226-.797 2.248-2.739 5.895-6.558 18.366-6.558 18.366l-.118.336c-.942-.211-1.882-.41-2.822-.599l-.133-.036 7.994-21.46c-.972.018 3.116 1.222 2.434 1.145zm-62.348 20.148c-.862.149-1.724.304-2.586.466 0 0-3.819-12.47-6.557-18.366-.574-1.235-.29-.541-1.06-2.067l2.973-1.08 7.23 21.047z" fill="#b39d17" fill-opacity="1" stroke="none" display="inline"/><path d="M185.266 66.28l1.984 3.419 5.535-2.267 1.344-4.763h-2.517l-6.346 3.61z" fill="#eac634" fill-opacity="1" stroke="none"/><path d="M264.633 66.32l-1.983 3.42-5.676-2.407-1.204-4.623h2.517l6.346 3.61z" fill="#eac634" fill-opacity="1" stroke="none" display="inline"/><path d="M194.785 75.251l-1.313-3.72 1.642-.656 3.282-3.283 2.08 7.878-2.955-.875h-1.532l-1.204.656z" fill="#d2b225" fill-opacity="1" stroke="none"/><path d="M255.06 75.183l1.312-3.72-1.641-.657-3.283-3.282-2.079 7.878 2.955-.876h1.532l1.203.657z" fill="#d2b225" fill-opacity="1" stroke="none" display="inline"/><path d="M196.536 70l1.532 4.267 2.516 1.203-1.86-7.987-2.188 2.516z" fill="#eac634" fill-opacity="1" stroke="none"/><path d="M253.582 69.986l-1.532 4.267-2.516 1.204 1.86-7.988 2.188 2.517z" fill="#eac634" fill-opacity="1" stroke="none" display="inline"/><path d="M186.36 67.373l7.331-2.954.438-1.75h-2.954l-5.8 3.61.985 1.094z" fill="#edd05c" fill-opacity="1" stroke="none"/><path d="M263.594 67.36l-7.331-2.954-.438-1.751 2.764.38 5.99 3.23-.985 1.095z" fill="#edd05c" fill-opacity="1" stroke="none" display="inline"/><path d="M202.998 73.328s-.584-2.098-.28-3.085c.166-.54.53-1.161 1.075-1.308 1.38-.372 4.02 1.495 4.02 1.495s-.722-3.294-.608-4.954c.054-.788.608-2.29.608-2.29s.835.996 1.075 1.589c.706 1.745.981 5.562.981 5.562s1.967-2.172 3.272-2.15c.648.01 1.28.552 1.589 1.122.38.698.093 2.383.093 2.383l1.543 1.963.327-5.748-.795-1.823-2.01-.748-1.402.234-1.916 1.355-.047-3.74-.794-1.541-2.057-1.73-1.822 2.244-.561 2.01.934 3.458-2.85-.841-1.543.234-1.262 1.495.187 2.711 1.776 4.02.467-1.917z" fill="#edd05c" fill-opacity="1" stroke="none"/><path d="M246.993 73.141s.584-2.098.28-3.085c-.166-.54-.53-1.161-1.075-1.308-1.38-.373-4.02 1.495-4.02 1.495s.722-3.294.608-4.954c-.054-.788-.607-2.29-.607-2.29s-.835.996-1.075 1.589c-.707 1.745-.982 5.562-.982 5.562s-1.967-2.172-3.272-2.15c-.648.01-1.28.552-1.589 1.122-.38.698-.093 2.383-.093 2.383l-1.542 1.963-.328-5.749.795-1.822 2.01-.748 1.402.233 1.916 1.356.047-3.74.794-1.542 2.057-1.729 1.823 2.244.56 2.01-.934 3.458 2.85-.841 1.543.233 1.262 1.496-.187 2.71-1.776 4.02-.467-1.916z" fill="#edd05c" fill-opacity="1" stroke="none" display="inline"/><path d="M229.827 59.84l1.069-.698-2.334-.89-6.557.223-2.667.555 1.247 1.152 2.929-.438.107 10.734v16.101l3.435.108-.752-27.158 3.523.31z" fill="#f1dc79" fill-opacity="1" stroke="none"/><path d="M196.21 92.75s-3.819-12.47-6.557-18.365c-1.333-2.87-4.098-8.206-4.098-8.206l5.61-3.238 2.887-.404c-1.419 3.784-1.32 6.43-1.349 9.172 2.974-.512 4.34-2.77 5.935-4.316l1.889 7.958c-2.977-1.323-4.962-.661-6.88.135 0 0 1.23 2.402 2.159 3.237 1.063.955 2.235 1.501 3.642 1.753 1.33.239 2.83.321 4.046-.27 2.562-1.243 3.867-3.956 3.507-3.776 0 0 .257-2.38-.405-3.237-.495-.642-1.512-1.163-2.293-.945-1.23.345-1.888 3.103-1.888 3.103s-1.183-2.348-1.484-3.642c-.264-1.14-.66-2.462-.135-3.507.392-.78 1.3-1.325 2.159-1.484 1.136-.21 3.237.81 3.237.81s-.627-2.115-.81-3.238c-.093-.577.047-1.348.27-1.888.511-1.234 1.325-1.886 1.844-2.591.692.69 1.546.938 2.344 2.008.35.469.675 1.182.726 1.764.1 1.133.011 3.337.011 3.337s1.786-1.505 2.94-1.58c.87-.057 1.885.247 2.456.908.766.884.708 2.262.731 3.432.027 1.328-.543 3.895-.543 3.895s-1.315-2.512-2.593-2.543c-.81-.02-1.668.735-1.99 1.479-.43.993.403 3.237.403 3.237 5.047 3.94 10.27-.1 11.341-4.04v-1.483c-2.113.291-3.012.662-5.126 3.102l-.674-9.846c2.023 1.83 3.777 2.487 5.8 2.158-.19-2.86-1.71-4.073-4.047-6.577l2.293-.674h6.863l2.293.674c-2.336 2.504-3.857 3.716-4.046 6.577 2.023.329 3.776-.329 5.8-2.158l-.675 9.846c-2.113-2.44-3.012-2.81-5.125-3.102v1.484c1.07 3.938 6.293 7.98 11.34 4.04 0 0 .834-2.245.404-3.238-.323-.744-1.18-1.499-1.99-1.479-1.279.031-2.594 2.543-2.594 2.543s-.57-2.567-.543-3.895c.024-1.17-.034-2.548.732-3.432.57-.66 1.585-.965 2.456-.908 1.154.075 2.94 1.58 2.94 1.58s-.089-2.204.01-3.337c.052-.582.377-1.295.726-1.764.799-1.07 1.303-1.55 2.112-2.358.602.755 1.565 1.707 2.076 2.94.224.54.364 1.312.27 1.89-.182 1.122-.81 3.236-.81 3.236s2.101-1.02 3.238-.809c.858.16 1.767.704 2.158 1.484.525 1.045.13 2.367-.135 3.507-.3 1.294-1.484 3.642-1.484 3.642s-.657-2.758-1.888-3.103c-.78-.218-1.798.303-2.293.945-.662.857-.405 3.237-.405 3.237-.36-.18.946 2.533 3.507 3.776 1.216.591 2.716.509 4.047.27 1.406-.252 2.579-.798 3.642-1.753.929-.835 2.158-3.237 2.158-3.237-1.918-.796-3.902-1.458-6.88-.135l1.89-7.958c1.595 1.546 2.96 3.804 5.934 4.316-.028-2.742.07-5.388-1.349-9.172l2.62.483 5.878 3.159s-1.162 2.241-2.342 4.6c-.64 1.28-1.287 2.596-1.756 3.606-2.739 5.895-6.558 18.366-6.558 18.366l-.118.336c-19.541-4.374-38.638-3.865-57.46-.336z" fill="none" stroke="#000" stroke-width=".46498685999999995" stroke-linecap="butt" stroke-linejoin="miter" stroke-miterlimit="4" stroke-opacity="1" display="inline"/></g><g stroke-width=".598"><g font-size="medium" font-style="normal" font-variant="normal" font-weight="400" font-stretch="normal" letter-spacing="normal" word-spacing="normal" direction="ltr" writing-mode="lr-tb" text-anchor="start" color="#000" visibility="visible" font-family="Bitstream Vera Sans"><path d="M196.225 97.023c19.892-4.365 39.058-3.948 57.83.02 3.232 1.064 3.965-6.317.807-7.889-19.577-5.807-54.321-2.472-59.795 0-1.648-.294-3.913 7.665 1.158 7.869z" style="text-indent:0;text-align:start;line-height:normal;text-transform:none;block-progression:tb;marker:none;-inkscape-font-specification:Bitstream Vera Sans" text-decoration="none" fill="#fff" fill-opacity="1" stroke="none" display="inline" overflow="visible"/><path d="M196.225 97.023c19.892-4.365 39.058-3.948 57.83.02 1.07.353 2.185-1.85 2.657-2.834-26.883-6.689-42.874-4.9-63.625 0-.185-.72-.288.438.582 1.452.597.695 2.1 1.255 2.556 1.362z" style="text-indent:0;text-align:start;line-height:normal;text-transform:none;block-progression:tb;marker:none;-inkscape-font-specification:Bitstream Vera Sans" text-decoration="none" fill="#ccc" stroke="none" display="inline" overflow="visible"/><path d="M196.225 97.023c19.892-4.365 39.058-3.948 57.83.02 3.232 1.064 3.965-6.317.807-7.889-19.577-5.807-54.321-2.472-59.795 0-1.648-.294-3.913 7.665 1.158 7.869z" style="text-indent:0;text-align:start;line-height:normal;text-transform:none;block-progression:tb;marker:none;-inkscape-font-specification:Bitstream Vera Sans" text-decoration="none" fill="none" stroke="#000" stroke-miterlimit="4" stroke-opacity="1" display="inline" overflow="visible" stroke-width=".46498685999999995"/></g><g fill="#000" fill-opacity="1" display="inline" stroke="none"><path d="M221.5 91.767s2.543-1.044 3.883-1.3c1.38-.265 4.209-.232 4.209-.232l-1.581-.79s-1.515-.233-2.796-.627c-.732-.226-1.587-.622-2.319-.655-.93-.04-2.255.325-2.255.325l2.51.629s-.728.177-1.278.371c-.393.139-1.465.72-1.465.72l2.86.025s-.83.391-1.163.697c-.254.233-.605.837-.605.837z" display="inline"/><g stroke-width=".598" stroke-miterlimit="4"><path d="M209.792 92.47s2.388-1.361 3.685-1.787c1.335-.438 4.144-.767 4.144-.767l-1.668-.583s-1.532-.036-2.853-.263c-.756-.13-1.654-.414-2.384-.353-.928.078-2.195.61-2.195.61l2.57.303s-.7.27-1.22.532c-.372.188-1.361.901-1.361.901l2.84-.341s-.774.494-1.065.84c-.222.263-.493.907-.493.907zM233.32 92.355s2.601-.888 3.955-1.063c1.393-.18 4.215.024 4.215.024l-1.53-.885s-1.498-.323-2.753-.795c-.717-.269-1.547-.717-2.275-.793-.926-.097-2.27.187-2.27.187l2.467.78s-.738.133-1.299.293c-.4.115-1.505.63-1.505.63l2.853.198s-.852.34-1.203.625c-.267.217-.655.799-.655.799z" display="inline"/></g><g stroke-width=".598" stroke-miterlimit="4"><path d="M198.341 93.88s2.213-1.63 3.451-2.204c1.275-.591 4.027-1.246 4.027-1.246l-1.726-.384s-1.525.143-2.864.072c-.765-.04-1.69-.218-2.408-.072-.913.187-2.11.863-2.11.863h2.59s-.665.35-1.151.671c-.348.23-1.246 1.055-1.246 1.055l2.78-.671s-.71.581-.96.958c-.189.288-.383.959-.383.959zM245.055 93.648s2.679-.614 4.043-.647c1.405-.035 4.19.46 4.19.46l-1.43-1.039s-1.456-.477-2.656-1.075c-.686-.342-1.464-.873-2.18-1.025-.912-.192-2.279-.048-2.279-.048l2.375 1.03s-.749.056-1.323.158c-.41.072-1.563.47-1.563.47l2.817.492s-.882.25-1.26.498c-.289.188-.734.726-.734.726z" display="inline"/></g></g></g><g stroke-width=".598"><g transform="matrix(.77757 0 0 .77757 90.731 1.27)"><rect width="12.202" height="7.05" rx="2.249" ry="2.249" x="166.576" y="98.883" fill="#1d369e" fill-opacity="1" stroke="none"/><path d="M168.265 104.495l-.058-3.238.867-.752 7.575-.058 1.04 1.62-.057 2.08h1.098l.058-3.41-1.387-1.967-9.02.116-1.678 1.272.058 3.816.578.694.926-.173z" fill="#4163ef" fill-opacity="1" stroke="none"/><path d="M166.935 102.933l2.081 1.388 7.17.058.925-.925.058-2.082 1.214-1.85.637 1.272-.29 3.758-1.156 1.562-8.847-.174-1.85-1.214-.29-.752.348-1.04z" fill="#2545cb" fill-opacity="1" stroke="none"/><rect width="12.202" height="7.05" rx="2.249" ry="2.249" x="166.576" y="98.883" fill="none" stroke="#000" stroke-width=".598" stroke-miterlimit="4" stroke-opacity="1" display="inline"/><rect width="3.812" height="1.598" rx=".752" ry=".752" x="168.944" y="101.06" fill="#5674f1" fill-opacity="1" stroke="none"/></g><path d="M213.806 81.641a4.507 2.748-6.311 1 1-8.898 1.352 4.507 2.748-6.311 1 1 8.898-1.352z" fill="#2ca02c" fill-opacity="1" stroke="none"/><path d="M204.936 83.253c3.826.666 6.976.397 8.132-2.633l.775.89v1.278l-1.936 1.51-2.44.814-3.02-.504-1.511-1.355z" fill="#237f23" fill-opacity="1" stroke="none"/><path d="M204.975 82.556c1.696-1.447 4.038-2.177 6.66-2.595l-2.168-.503-2.479.58-1.51 1.279-.503 1.239z" fill="#32b532" fill-opacity="1" stroke="none"/><path d="M157.483 104.188a5.775 4.23 0 1 1-11.55 0 5.775 4.23 0 1 1 11.55 0z" transform="matrix(.77038 -.11702 .14164 .63647 77.728 33.757)" fill="none" stroke="#000" stroke-width=".653" stroke-miterlimit="4" stroke-opacity="1" display="inline"/><path d="M209.39 81.568a1.394.716 0 1 1-2.789 0 1.394.716 0 1 1 2.788 0z" fill="#6cd66c" fill-opacity="1" stroke="none"/><g><path d="M194.32 87.587l4.6-3.459-6.957-2.656s-1.064 1.017-1.265 1.897c-.278 1.218-.272 2.06.506 3.036.693.871 3.116 1.182 3.116 1.182z" fill="#d71e1e" fill-opacity="1" stroke="none"/><path d="M190.574 85.543l1 1.334 2.917.75 4.417-3.5c-2.57.713-4.542 2.126-8.334 1.416z" fill="#9b1616" fill-opacity="1" stroke="none"/><path d="M190.407 83.96c2.723-1.604 5.445-.277 8.168-.084l-6.584-2.417-1.167 1.25-.417 1.25z" fill="#e43a3a" fill-opacity="1" stroke="none"/><path d="M193.24 83.751a1.083.792 0 1 1-2.166 0 1.083.792 0 1 1 2.167 0z" fill="#ed7676" fill-opacity="1" stroke="none"/><path d="M194.32 87.587l4.6-3.459-6.957-2.656s-1.064 1.017-1.265 1.897c-.278 1.218-.272 2.06.506 3.036.693.871 3.116 1.182 3.116 1.182z" fill="none" stroke="#000" stroke-width=".46498685999999995" stroke-linecap="butt" stroke-linejoin="miter" stroke-miterlimit="4" stroke-opacity="1" display="inline"/></g><g display="inline"><path d="M236.193 81.641a2.748 4.507-83.689 1 1 8.899 1.352 2.748 4.507-83.689 1 1-8.899-1.352z" fill="#2ca02c" fill-opacity="1" stroke="none"/><path d="M245.064 83.253c-7.025 1.29-7.375-.499-8.907-1.743v1.278l1.936 1.51 2.44.814 3.02-.504 1.51-1.355z" fill="#237f23" fill-opacity="1" stroke="none"/><path d="M245.025 82.556c-1.697-1.447-5.48-1.567-8.103-1.985l3.61-1.113 2.48.58 1.51 1.279.503 1.239z" fill="#32b532" fill-opacity="1" stroke="none"/><path d="M157.483 104.188a5.775 4.23 0 1 1-11.55 0 5.775 4.23 0 1 1 11.55 0z" transform="matrix(-.77038 -.11702 -.14164 .63647 372.272 33.757)" fill="none" stroke="#000" stroke-width=".653" stroke-miterlimit="4" stroke-opacity="1" display="inline"/><path d="M237.989 81.395a.716 1.394 90 1 1 2.788 0 .716 1.394 90 1 1-2.788 0z" fill="#6cd66c" fill-opacity="1" stroke="none"/><g><path d="M255.68 87.587l-4.6-3.459 6.957-2.656s1.064 1.017 1.265 1.897c.278 1.218.272 2.06-.506 3.036-.694.871-3.117 1.182-3.117 1.182z" fill="#d71e1e" fill-opacity="1" stroke="none"/><path d="M259.426 85.543l-1 1.334-2.918.75-4.417-3.5c2.571.713 4.543 2.126 8.335 1.416z" fill="#9b1616" fill-opacity="1" stroke="none"/><path d="M259.592 83.96c-2.722-1.604-5.445-.277-8.167-.084l6.584-2.417 1.167 1.25.416 1.25z" fill="#e43a3a" fill-opacity="1" stroke="none"/><path d="M256.759 83.751a.792 1.083 90 1 1 2.167 0 .792 1.083 90 1 1-2.167 0z" fill="#ed7676" fill-opacity="1" stroke="none"/><path d="M255.68 87.587l-4.6-3.459 6.957-2.656s1.064 1.017 1.265 1.897c.278 1.218.272 2.06-.506 3.036-.694.871-3.117 1.182-3.117 1.182z" fill="none" stroke="#000" stroke-width=".46498685999999995" stroke-linecap="butt" stroke-linejoin="miter" stroke-miterlimit="4" stroke-opacity="1" display="inline"/></g></g></g><g stroke-width=".598"><path d="M222.09 67.846a2.91 2.91 0 1 1 5.82 0 2.91 2.91 0 1 1-5.82 0z" fill="#ccc" fill-opacity="1" stroke="none"/><path d="M222.527 67.473a2.197 2.258 90 1 1 4.516 0 2.197 2.258 90 1 1-4.516 0z" fill="#e6e6e6" stroke="none"/><path d="M222.721 67.089a1.67 1.677 0 1 1 3.34 0 1.67 1.677 0 1 1-3.34 0z" fill="#fff" fill-opacity="1" stroke="none"/><path d="M222.09 67.846a2.91 2.91 0 1 1 5.82 0 2.91 2.91 0 1 1-5.82 0z" fill="none" stroke="#000" stroke-width=".46498685999999995" stroke-miterlimit="4" stroke-opacity="1" display="inline"/></g><g stroke-width=".598"><g display="inline"><path d="M255.561 74.112a2.91 2.91 0 1 1 5.82 0 2.91 2.91 0 1 1-5.82 0z" fill="#ccc" fill-opacity="1" stroke="none"/><path d="M255.998 73.738a2.197 2.258 90 1 1 4.515 0 2.197 2.258 90 1 1-4.515 0z" fill="#e6e6e6" stroke="none"/><path d="M256.192 73.355a1.67 1.677 0 1 1 3.34 0 1.67 1.677 0 1 1-3.34 0z" fill="#fff" fill-opacity="1" stroke="none"/><path d="M255.561 74.112a2.91 2.91 0 1 1 5.82 0 2.91 2.91 0 1 1-5.82 0z" fill="none" stroke="#000" stroke-width=".46498685999999995" stroke-miterlimit="4" stroke-opacity="1" display="inline"/></g><g display="inline"><path d="M188.62 74.112a2.91 2.91 0 1 1 5.818 0 2.91 2.91 0 1 1-5.819 0z" fill="#ccc" fill-opacity="1" stroke="none"/><path d="M189.056 73.738a2.197 2.258 90 1 1 4.516 0 2.197 2.258 90 1 1-4.516 0z" fill="#e6e6e6" stroke="none"/><path d="M189.25 73.355a1.67 1.677 0 1 1 3.34 0 1.67 1.677 0 1 1-3.34 0z" fill="#fff" fill-opacity="1" stroke="none"/><path d="M188.62 74.112a2.91 2.91 0 1 1 5.818 0 2.91 2.91 0 1 1-5.819 0z" fill="none" stroke="#000" stroke-width=".46498685999999995" stroke-miterlimit="4" stroke-opacity="1" display="inline"/></g></g></g><g fill="#cf142b" fill-opacity="1" stroke="#161111" stroke-width="1" stroke-opacity="1"><path d="M236.993 169.001c1.554-1.53 4.054-3.224 5.442-6.905 1.3-3.446 1.93-9.77 3.115-12.976 1.55-5.495 4.671-10.853.956-10.486-3.537.35-4.681 3.767-6.022 6.268-.62.932-2.052 2.927-2.322 4.061-.054-1.903-1.016-7.454-1.212-13.036-.184-5.213-.036-10.64-.175-12.664-.17-2.673-.153-5.185-.78-7.16-.292-.921-1.645-1.807-2.34-1.768-1.425.01-2.287 1.25-2.48 2.416-.139.92-.1.584-.194 1.774-.119 1.506.029 3.446-.08 5.15-.117 1.837.123 3.878.023 5.587-.202 3.446-.451 6.604-.553 7.25 0-1.278-.584-7.315-.78-13.046a419.48 419.48 0 0 1-.162-6.313c-.03-1.614.04-3.33-.134-4.585-.296-2.14-.988-3.114-2.54-3.114-1.047 0-2.545.762-3.025 3.142-.258 1.282-.269 2.853-.226 4.568.039 1.594.124 3.311.098 5.036-.096 6.528-.212 13.446-.478 15.484-.043-.67-.697-4.086-.873-8.658a804.67 804.67 0 0 0-.264-6.052c-.115-2.485-.106-4.338-.168-5.995-.018-1.001-.416-3.882-2.342-3.709-1.012-.124-2.083.581-2.515 3.308-.24 1.518-.234 4.132-.274 6.147-.076 3.825-.241 7.174-.057 10.58.114 2.124.097 3.762.12 4.809.026.278-.542-1.785-.829-4.59-.28-2.743-.53-6.234-.507-5.429 0-1.417-.068-3.525-.196-5.265-.1-1.36-.037-2.859-1.511-2.74-1.496.122-2.415.628-2.724 3.19-.2 1.66-.256 5.246-.3 6.547.161 3.307-.722 11.018-1.123 13.211-.109 1.554-.722 3.575-.982 5.74-.558 4.663-.027 10.12.59 12.914 1.227 4.41 4.43 6.39 4.269 9.381-.161 2.993 0 8.27 0 10.632s2.052 2.49 6.3 1.575c6.947-1.496 10.743 1.496 16.478-.709-.727-6.536.69-10.466.653-12.828zM232.94 153.556c1.437-3.966 3.251-5.524 5.002-6.39" stroke-miterlimit="4"/><path d="M217.144 149.468c2.164-.854 4.41-1.473 6.608-2.225 2.69-.758 5.295-1.846 8.07-2.276 1.338-.272 2.682-.536 4.047-.628M213.286 170.63c.303-.201.594.117.886.177.407.126.833.252 1.263.178.844-.014 1.69-.015 2.534.003 1.002-.037 1.831-.073 2.637-.64M226.882 170.732c.29.238.62.425.969.562.536.238 1.124.268 4.604-.012 2.16.138 4.071-1.727 4.61-2.23" stroke-linecap="butt" stroke-linejoin="miter"/></g></svg>