<svg width="450" height="300" xmlns="http://www.w3.org/2000/svg">

 <g>
  <title>Layer 1</title>
  <rect fill="#ffffff" y="0" x="0" height="300" width="450" id="rect2382"/>
  <rect fill="#003893" y="0" x="0" height="100" width="450" id="rect3158"/>
  <g id="svg_3" fill="#de0000">
   <path id="svg_1" d="m308.00003,423.23625l691.99997,0l0,76.76376l-691.99997,0l0,-76.76376z"/>
   <path id="svg_2" stroke-width="8.89" stroke="#fcd115" fill-rule="evenodd" d="m654.00002,314.71539l23.66156,48.46332l76.56149,0.0023l-61.93815,29.95393l23.65602,48.4647l-61.94092,-29.95162l-61.94161,29.95116l23.65602,-48.4647l-61.93815,-29.95393l76.56149,-0.0023l23.66225,-48.46286z"/>
  </g>
  <g id="svg_6" fill="#de0000">
   <path id="svg_4" d="m-93.99998,199.13532l636.99998,0l0,102.86471l-636.99998,0l0,-102.86471z"/>
   <path id="svg_5" stroke-width="8.89" stroke="#fcd115" fill-rule="evenodd" d="m224.50001,53.71556l21.78094,64.94165l70.4764,0.00309l-57.01532,40.13876l21.77584,64.9435l-57.01787,-40.13567l-57.01851,40.13505l21.77584,-64.9435l-57.01532,-40.13876l70.4764,-0.00309l21.78158,-64.94103z"/>
  </g>
 </g>
</svg>