<?xml version="1.0" encoding="UTF-8" standalone="no"?>
<svg
   viewBox="0 0 256 256"
   version="1.1"
   xmlns="http://www.w3.org/2000/svg">
  <path
     style="fill:none;stroke:currentColor;stroke-width:12;stroke-linecap:round;stroke-linejoin:round"
     d="M 165.53845,127.99999 A 37.53846,37.53846 0 0 1 127.99999,165.53845 37.53846,37.53846 0 0 1 90.461533,127.99999 37.53846,37.53846 0 0 1 127.99999,90.461533 37.53846,37.53846 0 0 1 165.53845,127.99999 Z M 128,250 V 190.01401 M 65.985992,128 H 6 M 128,65.985977 V 6 M 250,127.99998 H 190.01401 M 222,128 a 94,94 0 0 1 -94,94 94,94 0 0 1 -94,-94 94,94 0 0 1 94,-94 94,94 0 0 1 94,94 z"
     stroke="#000" />
</svg>
