<svg viewBox="0 0 256.00098 256" xmlns="http://www.w3.org/2000/svg"><path fill="#000" d="m216.001 207.833h-85.65725l34.72949-34.72949.0166-.01465.01465-.0166 56.55371-56.55274a24.02962 24.02962 0 0 0 0-33.94141l-45.25488-45.25487a24.0007 24.0007 0 0 0 -33.94141 0l-56.55908 56.55908-.01025.00928-.00928.01026-56.55908 56.55908a24.00066 24.00066 0 0 0 0 33.9414l37.08887 37.08789a8.00232 8.00232 0 0 0 5.65722 2.34278h143.93069a8 8 0 0 0 0-16zm-62.22463-159.1953a7.99708 7.99708 0 0 1 11.3125 0l45.25488 45.25488a8.00888 8.00888 0 0 1 0 11.31347l-50.91113 50.91114-56.56787-56.56787z"/></svg>
