<svg xmlns="http://www.w3.org/2000/svg" viewBox="0 0 512 512" style="height: 512px; width: 512px;"><g class="" transform="translate(0,0)" style=""><path d="m 278.97067,248.30714 a 23.103683,23.103683 0 0 1 -23.10368,23.10369 23.103683,23.103683 0 0 1 -23.10368,-23.10369 23.103683,23.103683 0 0 1 23.10368,-23.10368 23.103683,23.103683 0 0 1 23.10368,23.10368 z m 34.78746,-100.20594 -40.49689,70.17949 c 0.69187,0.43216 1.38476,0.77809 2.07664,1.29854 0.95157,0.60462 1.81692,1.29854 2.68124,1.98937 0.86535,0.69187 1.6455,1.47202 2.50982,2.24908 0.7781,0.77913 1.55824,1.64448 2.24909,2.42257 0.69187,0.86535 1.38579,1.73071 1.98938,2.68331 0.60666,0.95156 1.2123,1.90416 1.73172,2.85575 0.51941,0.95157 1.03883,1.99041 1.47099,3.02923 0.43318,1.03883 0.86637,2.07664 1.21231,3.20169 0.34593,1.12505 0.60666,2.16285 0.86535,3.28791 0.25971,1.12505 0.43319,2.24908 0.51941,3.46141 0.0873,1.12504 0.17349,2.33632 0.17349,3.54761 h 80.9948 C 371.56302,205.73365 350.6222,169.38797 313.75813,148.1012 Z m -115.69497,0 c -36.86407,21.28677 -57.8049,57.63245 -57.8049,100.20596 h 80.9948 c 0,-1.21129 0.0862,-2.42257 0.17348,-3.54761 0.0862,-1.12507 0.34594,-2.33635 0.51839,-3.46141 0.25971,-1.12506 0.51942,-2.24908 0.86534,-3.28791 0.34595,-1.12506 0.69188,-2.16286 1.21129,-3.20169 0.43319,-1.03883 0.95158,-2.07766 1.47203,-3.02923 0.51838,-0.95159 1.12505,-1.90314 1.73068,-2.85575 0.60462,-0.9526 1.29751,-1.81796 1.98939,-2.68331 0.69187,-0.86534 1.47098,-1.64344 2.24908,-2.42257 0.77912,-0.77809 1.64447,-1.55721 2.50982,-2.24908 0.86535,-0.69187 1.73069,-1.38475 2.68228,-1.98937 0.69187,-0.43217 1.38476,-0.86535 2.07663,-1.29854 z m 40.49791,130.23346 -40.4979,70.17948 c 36.86302,21.28676 78.83194,21.28676 115.69497,0 l -40.49689,-70.17947 c -0.25971,0.17348 -0.51941,0.34695 -0.77911,0.52044 -0.95261,0.51838 -1.99041,1.0378 -3.02821,1.46997 -1.03884,0.43318 -2.07664,0.86637 -3.20171,1.2123 -1.12505,0.34697 -2.16388,0.60667 -3.28894,0.86638 -1.12505,0.25868 -2.25011,0.43216 -3.4614,0.51838 -1.12608,0.0873 -2.33633,0.17348 -3.54864,0.17348 -1.21128,0 -2.33531,-0.0862 -3.54763,-0.17348 -1.12505,-0.0862 -2.33633,-0.2597 -3.46139,-0.51838 -1.12505,-0.25971 -2.24909,-0.51941 -3.28894,-0.86638 -1.12506,-0.34593 -2.16285,-0.69187 -3.20168,-1.2123 -1.03883,-0.43217 -2.07664,-0.95159 -3.02821,-1.46997 -0.34594,-0.17349 -0.60462,-0.34696 -0.86432,-0.52045 z" fill="#000" transform=""></path></g></svg>
