<?xml version="1.0" encoding="UTF-8"?>
<svg width="24" height="24" version="1.1" viewBox="0 0 24 24" xmlns="http://www.w3.org/2000/svg">
 <path d="m7.3 2.5c-1.3 0.029-2.6 0.44-4 1.4a0.75 0.75 0 0 0-0.031 0.035 0.75 0.75 0 0 0-0.11 0.12 0.75 0.75 0 0 0-0.074 0.11 0.75 0.75 0 0 0-0.051 0.15 0.75 0.75 0 0 0-0.027 0.14 0.75 0.75 0 0 0-0.0098 0.053v16a0.75 0.75 0 0 0 0.75 0.75 0.75 0.75 0 0 0 0.75-0.75v-4.1c1.2-0.84 2.3-1 3.4-0.9 1.2 0.12 2.5 0.65 3.8 1.2 1.3 0.56 2.7 1.2 4.2 1.3 1.5 0.16 3.2-0.19 4.8-1.4a0.75 0.75 0 0 0 0.3-0.6v-5.4a5.5 5.5 0 0 1-1.5 0.51v4.4c-1.2 0.83-2.3 1.1-3.4 0.96-1.2-0.12-2.5-0.65-3.8-1.2-1.3-0.56-2.7-1.2-4.2-1.3-1.1-0.12-2.4 0.05-3.6 0.67v-9.5c1.1-0.73 2-0.96 3-0.93 0.15 4e-3 0.3 0.014 0.45 0.029 1.2 0.12 2.5 0.65 3.8 1.2 0.43 0.18 0.87 0.37 1.3 0.55a5.5 5.5 0 0 1 0.17-1.6c-0.29-0.12-0.59-0.24-0.89-0.37-1.3-0.56-2.7-1.2-4.2-1.3-0.19-0.02-0.38-0.032-0.57-0.035-0.084-0.0014-0.17-2e-3 -0.25 0z" fill="#000" stroke-linecap="round" stroke-linejoin="round"/>
 <path d="m18 9a3.5 3.5 0 1 1 3.5-3.5 3.5 3.5 0 0 1-3.5 3.5z" fill="#ff6359"/>
</svg>
