<svg fill="#000" viewBox="0 0 24 24" xmlns="http://www.w3.org/2000/svg"><path d="m0 0h24v24h-24z" fill="none"/><path d="m12 2c5.523 0 10 4.477 10 10s-4.477 10-10 10c-1.702 0-3.305-.425-4.708-1.175l-5.292 1.175 1.176-5.29c-.75-1.404-1.176-3.007-1.176-4.71 0-5.523 4.477-10 10-10zm0 2c-4.418 0-8 3.582-8 8 0 1.335.326 2.618.94 3.766l.35.654-.656 2.946 2.948-.654.653.349c1.148.614 2.43.939 3.765.939 4.418 0 8-3.582 8-8s-3.582-8-8-8zm0 3c1.657 0 3 1.343 3 3v1h1v5h-8v-5h1v-1c0-1.657 1.343-3 3-3zm2 6h-4v1h4zm-2-4c-.552 0-1 .45-1 1v1h2v-1c0-.552-.448-1-1-1z"/></svg>
