<svg fill="#000" viewBox="0 0 250 250" width="250" height="250" xmlns="http://www.w3.org/2000/svg"><path d="M9.999 120a52.059 52.059 0 0 1 52-52h39.963c.505-.003 51.051-.778 99.176-41.142A19.999 19.999 0 0 1 234 42.168v155.664a19.805 19.805 0 0 1-11.538 18.117 20.108 20.108 0 0 1-8.51 1.906 19.886 19.886 0 0 1-12.813-4.713 180.074 180.074 0 0 0-79.14-38.54v28.454a19.889 19.889 0 0 1-11.055 17.888l-18.658 9.33a20 20 0 0 1-28.347-13.039l-11.535-46.137A52.077 52.077 0 0 1 9.999 120Zm200 69.467V50.533a201.477 201.477 0 0 1-88 39.365v60.204a201.472 201.472 0 0 1 88 39.365zm-123.986 17.11L98 200.584V172H77.37ZM62 148h36V92H62a28 28 0 0 0 0 56z"/></svg>
